<svg width="26" height="22" viewBox="0 0 26 22" fill="none" xmlns="http://www.w3.org/2000/svg">
<g id="Group 210">
<rect id="Rectangle 413" opacity="0.8" x="1" y="1.01953" width="23.4746" height="19.9608" rx="3" stroke="#0F69AF" stroke-width="2"/>
<rect id="Rectangle 414" opacity="0.8" x="1" y="1.01953" width="5.9059" height="19.9608" rx="2.95295" stroke="#0F69AF" stroke-width="2"/>
<path id="Line 15" d="M8 9.56055C7.44772 9.56055 7 10.0083 7 10.5605C7 11.1128 7.44772 11.5605 8 11.5605V9.56055ZM20.1267 11.2677C20.5173 10.8771 20.5173 10.244 20.1267 9.85344L13.7628 3.48948C13.3723 3.09895 12.7391 3.09895 12.3486 3.48948C11.958 3.88 11.958 4.51317 12.3486 4.90369L18.0054 10.5605L12.3486 16.2174C11.958 16.6079 11.958 17.2411 12.3486 17.6316C12.7391 18.0221 13.3723 18.0221 13.7628 17.6316L20.1267 11.2677ZM8 11.5605H19.4196V9.56055H8V11.5605Z" fill="#0F69AF"/>
</g>
</svg>
