<svg xmlns="http://www.w3.org/2000/svg" width="26" height="22" viewBox="0 0 26 22" fill="none">
  <rect opacity="0.8" x="24.6748" y="20.9804" width="23.4746" height="19.9608" rx="3" transform="rotate(-180 24.6748 20.9804)" stroke="#0F69AF" stroke-width="2"/>
  <rect opacity="0.8" x="24.6748" y="20.9804" width="5.9059" height="19.9608" rx="2.95295" transform="rotate(-180 24.6748 20.9804)" stroke="#0F69AF" stroke-width="2"/>
  <path d="M17.6748 12.4391C18.2271 12.4391 18.6748 11.9914 18.6748 11.4391C18.6748 10.8868 18.2271 10.4391 17.6748 10.4391L17.6748 12.4391ZM5.54807 10.732C5.15754 11.1225 5.15754 11.7557 5.54807 12.1462L11.912 18.5102C12.3026 18.9007 12.9357 18.9007 13.3262 18.5102C13.7168 18.1196 13.7168 17.4865 13.3262 17.096L7.66939 11.4391L13.3262 5.78225C13.7168 5.39172 13.7168 4.75856 13.3262 4.36803C12.9357 3.97751 12.3026 3.97751 11.912 4.36803L5.54807 10.732ZM17.6748 10.4391L6.25517 10.4391L6.25517 12.4391L17.6748 12.4391L17.6748 10.4391Z" fill="#0F69AF"/>
</svg>