<svg width="26" height="27" viewBox="0 0 26 27" fill="none" xmlns="http://www.w3.org/2000/svg">
<g id="Subtract">
<path d="M4.19617e-05 15.125H11.375V26.5H1.62504C0.727229 26.5 4.19617e-05 25.7728 4.19617e-05 24.875V15.125Z" fill="#0F69AF"/>
<path d="M24.375 0.5H14.625V11.875H26V2.125C26 1.22719 25.2729 0.5 24.375 0.5Z" fill="#0F69AF"/>
<path d="M4.19617e-05 2.125V11.875H1.62504V2.125H11.375V0.5H1.62504C0.727229 0.5 4.19617e-05 1.22719 4.19617e-05 2.125Z" fill="#0F69AF"/>
<path d="M14.625 26.5V24.875H24.375V15.125H26V24.875C26 25.7728 25.2729 26.5 24.375 26.5H14.625Z" fill="#0F69AF"/>
</g>
</svg>
