<svg width="18" height="19" viewBox="0 0 18 19" fill="none" xmlns="http://www.w3.org/2000/svg">
<g id="Subtract">
<path d="M6.10352e-05 10.625H7.87506V18.5H1.12506C0.503499 18.5 6.10352e-05 17.9966 6.10352e-05 17.375V10.625Z" fill="#0F69AF"/>
<path d="M16.8751 0.5H10.1251V8.375H18.0001V1.625C18.0001 1.00344 17.4966 0.5 16.8751 0.5Z" fill="#0F69AF"/>
<path d="M6.10352e-05 1.625V8.375H1.12506V1.625H7.87506V0.5H1.12506C0.503499 0.5 6.10352e-05 1.00344 6.10352e-05 1.625Z" fill="#0F69AF"/>
<path d="M10.1251 18.5V17.375H16.8751V10.625H18.0001V17.375C18.0001 17.9966 17.4966 18.5 16.8751 18.5H10.1251Z" fill="#0F69AF"/>
</g>
</svg>
