<svg xmlns="http://www.w3.org/2000/svg" width="24" height="24" viewBox="0 0 24 24" fill="none">
  <path fill-rule="evenodd" clip-rule="evenodd" d="M16 3.66632H18.6669C19.4038 3.66632 20 4.41263 20 5.33263V6.5C20 6.77614 19.7761 7 19.5 7H4.5C4.22386 7 4 6.77614 4 6.5V5.33263C4 4.41263 4.59705 3.66632 5.33389 3.66632H8C8.40283 2.65988 9.37772 2 10.4618 2H13.5394C14.6232 2 15.5977 2.65996 16 3.66632ZM5.54991 8C5.25504 8 5.02421 8.25386 5.05216 8.5474L6.00003 18.5C6.00003 18.5 6.00003 22 12 22C18 22 18 18.5 18 18.5L18.9479 8.5474C18.9759 8.25386 18.745 8 18.4501 8H5.54991ZM11 17.5L11 11.5C11 11.2239 10.7762 11 10.5 11H9.50003C9.22389 11 9.00003 11.2239 9.00003 11.5V17.5C9.00003 17.7761 9.22389 18 9.50003 18H10.5C10.7762 18 11 17.7761 11 17.5ZM15 11.5V17.5C15 17.7761 14.7762 18 14.5 18H13.5C13.2239 18 13 17.7761 13 17.5V11.5C13 11.2239 13.2239 11 13.5 11H14.5C14.7762 11 15 11.2239 15 11.5Z" fill="#A9A9BA"/>
</svg>