<svg xmlns="http://www.w3.org/2000/svg" width="26" height="22" viewBox="0 0 26 22" fill="none">
  <rect opacity="0.8" x="1.20001" y="1.01958" width="23.4746" height="19.9608" rx="3" stroke="#0F69AF" stroke-width="2"/>
  <rect opacity="0.8" x="1.20001" y="1.01958" width="5.9059" height="19.9608" rx="2.95295" stroke="#0F69AF" stroke-width="2"/>
  <path d="M8.20001 9.56084C7.64773 9.56084 7.20001 10.0086 7.20001 10.5608C7.20001 11.1131 7.64773 11.5608 8.20001 11.5608V9.56084ZM20.3268 11.2679C20.7173 10.8774 20.7173 10.2443 20.3268 9.85373L13.9628 3.48977C13.5723 3.09924 12.9391 3.09924 12.5486 3.48977C12.1581 3.88029 12.1581 4.51346 12.5486 4.90398L18.2054 10.5608L12.5486 16.2177C12.1581 16.6082 12.1581 17.2414 12.5486 17.6319C12.9391 18.0224 13.5723 18.0224 13.9628 17.6319L20.3268 11.2679ZM8.20001 11.5608H19.6196V9.56084H8.20001V11.5608Z" fill="#0F69AF"/>
</svg>