<svg width="16" height="14" viewBox="0 0 16 14" fill="none" xmlns="http://www.w3.org/2000/svg">
<path fill-rule="evenodd" clip-rule="evenodd" d="M8 2.76855C11.5659 2.76855 14.9985 6.81411 15.1431 6.98594L15.5 7.41252L15.1431 7.8391C14.9985 8.01092 11.5659 12.0565 8 12.0565C4.4341 12.0565 1.00155 8.01092 0.856921 7.8391L0.5 7.41252L0.856921 6.98594C1.00155 6.81411 4.4341 2.76855 8 2.76855ZM5.34631 7.41252C5.34631 8.87603 6.53649 10.0662 8 10.0662C9.46351 10.0662 10.6537 8.87603 10.6537 7.41252C10.6537 5.94901 9.46351 4.75882 8 4.75882C6.53649 4.75882 5.34631 5.94901 5.34631 7.41252ZM9.32696 7.41258C9.32696 8.14537 8.73291 8.73942 8.00012 8.73942C7.26732 8.73942 6.67327 8.14537 6.67327 7.41258C6.67327 6.67978 7.26732 6.08573 8.00012 6.08573C8.73291 6.08573 9.32696 6.67978 9.32696 7.41258Z" fill="#091734"/>
<rect x="2.5" y="2.09204" width="1.75112" height="15" rx="0.875559" transform="rotate(-42.8015 2.5 2.09204)" fill="#091734"/>
</svg>
