<svg width="16" height="18" viewBox="0 0 16 18" fill="none" xmlns="http://www.w3.org/2000/svg">
<path d="M4.81284 13.274L4.88291 12.1892L3.97473 12.7975L3.59912 12.136L4.57738 11.6595L3.59912 11.183L3.97473 10.5214L4.88291 11.1297L4.81284 10.0449H5.56685L5.49398 11.1297L6.40216 10.5214L6.77777 11.183L5.80231 11.6595L6.77777 12.136L6.40216 12.7975L5.49398 12.1892L5.56685 13.274H4.81284Z" fill="black"/>
<path d="M9.26827 13.274L9.33834 12.1892L8.43016 12.7975L8.05455 12.136L9.03281 11.6595L8.05455 11.183L8.43016 10.5214L9.33834 11.1297L9.26827 10.0449H10.0223L9.94941 11.1297L10.8576 10.5214L11.2332 11.183L10.2577 11.6595L11.2332 12.136L10.8576 12.7975L9.94941 12.1892L10.0223 13.274H9.26827Z" fill="black"/>
<path d="M13.7237 13.274L13.7938 12.1892L12.8856 12.7975L12.51 12.136L13.4882 11.6595L12.51 11.183L12.8856 10.5214L13.7938 11.1297L13.7237 10.0449H14.4777L14.4048 11.1297L15.313 10.5214L15.6886 11.183L14.7132 11.6595L15.6886 12.136L15.313 12.7975L14.4048 12.1892L14.4777 13.274H13.7237Z" fill="black"/>
<path fill-rule="evenodd" clip-rule="evenodd" d="M12.3585 5.22355H11.7819V4.21194C11.7819 1.8915 9.89136 0 7.57 0C5.24865 0 3.35807 1.89148 3.35807 4.21194V5.22355H2.78148C1.42065 5.22355 0.311279 6.33404 0.311279 7.69458V15.5299C0.311279 16.8904 1.42067 18.0009 2.78148 18.0009H12.3577C13.7184 18.0009 14.8287 16.8906 14.8287 15.5299V13.9297H13.3693V15.5302C13.3699 16.0986 12.9267 16.5415 12.3585 16.5415H2.78146C2.21338 16.5415 1.76985 16.0985 1.76985 15.5299V7.69458C1.76985 7.12593 2.21339 6.68297 2.78148 6.68297H12.3577C12.9265 6.68297 13.3693 7.12581 13.3693 7.69458V9.50368H14.8287V7.69458C14.8287 6.33404 13.7193 5.22355 12.3585 5.22355ZM4.81684 5.22355L4.81747 4.21212C4.81747 2.6868 6.04467 1.45942 7.57 1.45942C9.09533 1.45942 10.3225 2.68661 10.3225 4.21194V5.22355H4.81684Z" fill="black"/>
</svg>
