<svg width="17" height="16" viewBox="0 0 17 16" fill="none" xmlns="http://www.w3.org/2000/svg">
<path d="M11.5001 14.9999V2.55554C11.5001 2.14299 11.342 1.74733 11.0607 1.45561C10.7794 1.16389 10.3979 1 10.0001 1H7.00007C6.60224 1 6.22071 1.16389 5.93941 1.45561C5.6581 1.74733 5.50007 2.14299 5.50007 2.55554V14.9999M2.5 4.11121H14.5C15.3284 4.11121 16 4.80765 16 5.66675V13.4445C16 14.3036 15.3284 15 14.5 15H2.5C1.67157 15 1 14.3036 1 13.4445V5.66675C1 4.80765 1.67157 4.11121 2.5 4.11121Z" stroke="#8B8B9C" stroke-width="1.2" stroke-linecap="round" stroke-linejoin="round"/>
</svg>
