<svg xmlns="http://www.w3.org/2000/svg" width="13" height="14" viewBox="0 0 13 14" fill="none">
  <path d="M1.16619 3.96311L6.53855 6.98139L11.9109 3.96311M6.53832 13V6.9754M12.0769 9.3662V4.58481C12.0767 4.3752 12.0197 4.16932 11.9117 3.98784C11.8037 3.80635 11.6485 3.65565 11.4615 3.55084L7.15385 1.16015C6.96675 1.05523 6.75451 1 6.53846 1C6.32242 1 6.11018 1.05523 5.92308 1.16015L1.61538 3.55084C1.42847 3.65565 1.27322 3.80635 1.16521 3.98784C1.0572 4.16932 1.00022 4.3752 1 4.58481V9.3662C1.00022 9.57582 1.0572 9.7817 1.16521 9.96318C1.27322 10.1447 1.42847 10.2954 1.61538 10.4002L5.92308 12.7909C6.11018 12.8958 6.32242 12.951 6.53846 12.951C6.75451 12.951 6.96675 12.8958 7.15385 12.7909L11.4615 10.4002C11.6485 10.2954 11.8037 10.1447 11.9117 9.96318C12.0197 9.7817 12.0767 9.57582 12.0769 9.3662Z" stroke="#8B8B9C" stroke-width="1.2" stroke-linecap="round" stroke-linejoin="round"/>
</svg>