<svg width="30" height="34" viewBox="0 0 30 34" fill="none" xmlns="http://www.w3.org/2000/svg">
<path d="M1.4201 9.15471L15.0002 16.9519L28.5804 9.15471M14.9996 32.5V16.9364M29 23.1127V10.7608C28.9994 10.2193 28.8554 9.6874 28.5824 9.21858C28.3094 8.74975 27.9169 8.36043 27.4444 8.08967L16.5556 1.91371C16.0826 1.64268 15.5461 1.5 15 1.5C14.4539 1.5 13.9174 1.64268 13.4444 1.91371L2.55556 8.08967C2.08308 8.36043 1.69064 8.74975 1.41761 9.21858C1.14458 9.6874 1.00056 10.2193 1 10.7608V23.1127C1.00056 23.6542 1.14458 24.1861 1.41761 24.6549C1.69064 25.1237 2.08308 25.513 2.55556 25.7838L13.4444 31.9597C13.9174 32.2308 14.4539 32.3735 15 32.3735C15.5461 32.3735 16.0826 32.2308 16.5556 31.9597L27.4444 25.7838C27.9169 25.513 28.3094 25.1237 28.5824 24.6549C28.8554 24.1861 28.9994 23.6542 29 23.1127Z" stroke="#0F69AF" stroke-width="2" stroke-linecap="round" stroke-linejoin="round"/>
</svg>
