<svg xmlns="http://www.w3.org/2000/svg" width="25" height="25" viewBox="0 0 25 25" fill="none">
  <path fill-rule="evenodd" clip-rule="evenodd" d="M22.1779 12.5C22.4932 12.1937 22.7859 11.8901 23.0512 11.5891C24.8359 9.56818 25.4954 7.62994 24.6069 6.25272C23.7168 4.87422 21.5092 4.41473 18.6603 4.78476C18.2357 4.84034 17.793 4.91353 17.3382 5.0057C17.2002 4.60992 17.0516 4.23173 16.8924 3.87662C15.8265 1.48156 14.2769 0 12.5 0C10.7231 0 9.17337 1.48149 8.1076 3.87662C7.9484 4.23308 7.79981 4.60992 7.66184 5.0057C7.20696 4.91353 6.76574 4.84034 6.3397 4.78476C3.4907 4.41337 1.28317 4.87422 0.393119 6.25272C-0.495414 7.62848 0.164167 9.56679 1.94878 11.5891C2.21412 11.89 2.50676 12.195 2.82213 12.5C2.50676 12.8063 2.21412 13.1099 1.94878 13.4109C0.164144 15.4318 -0.495414 17.3701 0.393119 18.7473C1.28317 20.1258 3.49081 20.5853 6.3397 20.2152C6.76427 20.1597 7.207 20.0865 7.66184 19.9943C7.79982 20.3901 7.94841 20.7683 8.1076 21.1234C9.17352 23.5184 10.7231 25 12.5 25C14.2769 25 15.8266 23.5185 16.8924 21.1234C17.0516 20.7669 17.2002 20.3901 17.3382 19.9943C17.793 20.0865 18.2343 20.1597 18.6603 20.2152C21.5093 20.5866 23.7168 20.1258 24.6069 18.7473C25.4954 17.3715 24.8358 15.4332 23.0512 13.4109C22.7859 13.1099 22.4932 12.8063 22.1779 12.5ZM18.8603 6.03585C21.1286 5.74036 22.816 5.99925 23.3847 6.88029C23.9563 7.76405 23.3635 9.20082 21.9443 10.8069C21.7123 11.0698 21.4591 11.3355 21.1862 11.6012C20.3477 10.8896 19.3879 10.1793 18.3265 9.49482C18.1931 8.33049 17.9854 7.23124 17.714 6.22413C18.1082 6.14822 18.4904 6.08465 18.8603 6.03585ZM14.7967 16.0432L14.7937 16.0445H14.7921C14.0249 16.4403 13.2577 16.7995 12.5011 17.1207C11.7445 16.7995 10.9788 16.4403 10.2116 16.0445C10.1995 16.0377 10.1858 16.0323 10.1737 16.0255C9.42013 15.6365 8.70293 15.2285 8.02517 14.8111C7.95845 14.0642 7.92358 13.2902 7.92358 12.4973C7.92358 11.7043 7.95845 10.9304 8.02517 10.1835C8.71202 9.76063 9.44132 9.34722 10.2055 8.95279L10.2086 8.95143H10.2101C10.9773 8.55565 11.7445 8.19644 12.5011 7.8752C13.2577 8.19644 14.0234 8.55562 14.7906 8.95143C14.8027 8.95821 14.8164 8.96363 14.8285 8.97041C15.5821 9.35943 16.2993 9.76742 16.9771 10.1849C17.0438 10.9317 17.0786 11.7057 17.0786 12.4986C17.0786 13.2916 17.0438 14.0655 16.9771 14.8124C16.2902 15.2367 15.5609 15.6487 14.7967 16.0432ZM16.7739 16.4443C16.6602 17.1505 16.5176 17.8242 16.3478 18.4572C15.6488 18.2715 14.9256 18.0465 14.1841 17.7808C14.6193 17.5775 15.056 17.3647 15.4927 17.1383H15.4942C15.9324 16.912 16.36 16.6816 16.7739 16.4443ZM10.8164 17.7822C10.075 18.0465 9.35177 18.2729 8.65429 18.4572C8.48447 17.8242 8.34194 17.1505 8.2282 16.4443C8.63003 16.6734 9.04396 16.8984 9.46697 17.118C9.4791 17.1248 9.49123 17.1329 9.50488 17.1383C9.94156 17.3647 10.3798 17.5788 10.8164 17.7822ZM6.54049 13.8365C5.91277 13.396 5.33355 12.9487 4.80438 12.5C5.33204 12.0527 5.91277 11.6041 6.54049 11.1636C6.51927 11.6027 6.50714 12.0487 6.50714 12.5C6.50714 12.9514 6.51775 13.3973 6.54049 13.8365ZM8.22809 8.55562C8.34181 7.84941 8.48433 7.17576 8.65417 6.54277C9.35316 6.72847 10.0764 6.95347 10.8178 7.21913C10.3827 7.42245 9.946 7.63525 9.50932 7.86163H9.5078C9.06961 8.08799 8.64202 8.31841 8.22809 8.55562ZM14.1855 7.21778C14.927 6.95347 15.6502 6.7271 16.3477 6.54277C16.5175 7.17576 16.66 7.84941 16.7738 8.55562C16.372 8.32654 15.958 8.10154 15.535 7.88196C15.5229 7.87518 15.5107 7.86705 15.4971 7.86163C15.0604 7.63527 14.6222 7.42112 14.1855 7.21778ZM18.4615 11.1634C19.0892 11.604 19.6684 12.0513 20.1976 12.4999C19.6699 12.9472 19.0892 13.3959 18.4615 13.8364C18.4827 13.3973 18.4948 12.9513 18.4948 12.4999C18.4948 12.0486 18.4842 11.6026 18.4615 11.1634ZM9.41857 4.34155C10.2646 2.4412 11.3594 1.26604 12.5011 1.26604C13.6428 1.26604 14.7375 2.4412 15.5836 4.34155C15.7216 4.65194 15.852 4.98133 15.9748 5.32559C14.8649 5.61972 13.6974 6.00736 12.5026 6.48722C11.3078 6.00739 10.1388 5.61838 9.0289 5.32423C9.1502 4.98131 9.28059 4.65193 9.41857 4.34155ZM1.61737 6.88029C2.18594 5.99924 3.87505 5.74035 6.14174 6.03585C6.51019 6.08329 6.89379 6.14699 7.28801 6.22561C7.0166 7.23269 6.80887 8.33197 6.67546 9.49631C5.61408 10.1808 4.65432 10.8911 3.81582 11.6027C3.5429 11.3356 3.28967 11.07 3.05771 10.8084C1.63852 9.20081 1.04573 7.7653 1.61737 6.88029ZM6.14174 18.964C3.87342 19.2595 2.18602 19.0006 1.61737 18.1196C1.04573 17.2358 1.6386 15.799 3.05778 14.193C3.28977 13.93 3.54298 13.6644 3.8159 13.3987C4.65439 14.1103 5.61415 14.8206 6.67553 15.505C6.80896 16.6694 7.01669 17.7686 7.28809 18.7757C6.89387 18.8516 6.51169 18.9152 6.14174 18.964ZM15.5833 20.6583C14.7372 22.5587 13.6425 23.7338 12.5008 23.7338C11.359 23.7338 10.2643 22.5587 9.41826 20.6583C9.28028 20.3479 9.14988 20.0185 9.02707 19.6743C10.137 19.3801 11.3045 18.9925 12.4993 18.5126C13.6941 18.9925 14.8631 19.3815 15.973 19.6756C15.8517 20.0186 15.7213 20.3479 15.5833 20.6583ZM23.3845 18.1196C22.8159 19.0006 21.1268 19.2595 18.8601 18.964C18.4917 18.9166 18.1081 18.8529 17.7139 18.7742C17.9853 17.7672 18.193 16.6679 18.3264 15.5035C19.3878 14.819 20.3475 14.1088 21.186 13.3972C21.459 13.6642 21.7122 13.9299 21.9442 14.1915C23.3633 15.7991 23.9561 17.2346 23.3845 18.1196Z" fill="#0F69AF"/>
</svg>