<svg width="21" height="18" viewBox="0 0 21 18" fill="none" xmlns="http://www.w3.org/2000/svg">
<path id="Union" fill-rule="evenodd" clip-rule="evenodd" d="M11.0221 18C10.0498 18 9.16704 17.4474 8.44644 16.4947V15.6449H6.09762C5.93607 16.3191 5.29938 16.8224 4.53855 16.8224C3.65562 16.8224 2.93986 16.1446 2.93986 15.3084C2.93986 14.4722 3.65562 13.7944 4.53855 13.7944C5.28879 13.7944 5.91833 14.2838 6.0906 14.9439H8.44644V11.5991C8.41775 11.6046 8.38804 11.6075 8.35763 11.6075H3.38179C3.16233 12.1955 2.57015 12.6168 1.87407 12.6168C0.991146 12.6168 0.275391 11.939 0.275391 11.1028C0.275391 10.2666 0.991146 9.58879 1.87407 9.58879C2.6349 9.58879 3.2716 10.0921 3.43314 10.7664H8.35763C8.38804 10.7664 8.41775 10.7693 8.44644 10.7748V7.39346C8.41775 7.39897 8.38804 7.40187 8.35763 7.40187H3.38179C3.16233 7.98991 2.57015 8.41122 1.87407 8.41122C0.991146 8.41122 0.275391 7.73337 0.275391 6.8972C0.275391 6.06103 0.991146 5.38318 1.87407 5.38318C2.6349 5.38318 3.2716 5.88651 3.43314 6.56075H8.35763C8.38804 6.56075 8.41775 6.56364 8.44644 6.56916V3.02804H6.09762C5.93607 3.70228 5.29938 4.20561 4.53855 4.20561C3.65562 4.20561 2.93986 3.52776 2.93986 2.69159C2.93986 1.85542 3.65562 1.17757 4.53855 1.17757C5.21703 1.17757 5.7968 1.57784 6.02891 2.14265L8.44644 2.14265V1.50517C9.16702 0.552533 10.0498 0 11.0221 0C12.373 0 13.5511 1.06672 14.3615 2.79116C14.4825 3.04685 14.5955 3.31914 14.7004 3.6041C15.0462 3.53774 15.3828 3.48504 15.7056 3.44503C17.8715 3.1786 19.5498 3.50944 20.2265 4.50196C20.902 5.49356 20.4006 6.88909 19.0438 8.34418C18.8421 8.56084 18.6196 8.77944 18.3798 9C18.6196 9.22056 18.8421 9.43917 19.0438 9.65582C20.4006 11.1119 20.902 12.5075 20.2265 13.498C19.5498 14.4906 17.8715 14.8224 15.7056 14.555C15.3816 14.515 15.0462 14.4623 14.7004 14.3959C14.5955 14.6809 14.4825 14.9522 14.3615 15.2088C13.5512 16.9333 12.373 18 11.0221 18ZM9.3346 2.00406C9.8474 1.31071 10.4267 0.911546 11.0229 0.911546C11.8909 0.911546 12.7232 1.75766 13.3665 3.12591C13.4714 3.3494 13.5705 3.58656 13.6639 3.83442C12.82 4.0462 11.9324 4.3253 11.0241 4.6708C10.451 4.45284 9.88572 4.2609 9.3346 4.09573V2.00406ZM9.3346 5.06344C9.46995 5.1065 9.60617 5.15127 9.74322 5.19778C9.60718 5.25797 9.47095 5.31932 9.3346 5.38202V5.06344ZM9.3346 6.419C9.90008 6.1443 10.4653 5.89438 11.0229 5.67014C11.5982 5.90144 12.1803 6.16005 12.7636 6.44503C12.7649 6.44575 12.7663 6.44645 12.7677 6.44714L12.7698 6.44815L12.7722 6.44926L12.778 6.45187C12.7829 6.45406 12.7878 6.45626 12.7924 6.4587C13.3653 6.73879 13.9106 7.03254 14.4258 7.33312C14.4766 7.87084 14.5031 8.4281 14.5031 8.99902C14.5031 9.56995 14.4766 10.1272 14.4258 10.6649C13.9037 10.9704 13.3492 11.2671 12.7682 11.5511L12.7659 11.552H12.7647C12.1814 11.837 11.5982 12.0956 11.023 12.3269C10.4649 12.1026 9.90037 11.8525 9.3346 11.5775V6.419ZM9.3346 12.6197C9.47054 12.6822 9.60645 12.7433 9.74216 12.8032C9.60546 12.8493 9.46958 12.8939 9.3346 12.9368V12.6197ZM9.3346 13.903C9.88483 13.7382 10.4491 13.5468 11.0215 13.3291C11.9299 13.6746 12.8187 13.9547 13.6625 14.1665C13.5703 14.4134 13.4711 14.6505 13.3662 14.874C12.723 16.2422 11.8907 17.0884 11.0227 17.0884C10.4266 17.0884 9.84734 16.6893 9.3346 15.9962V13.903ZM15.8576 4.34581C17.5821 4.13306 18.865 4.31946 19.2973 4.95381C19.7319 5.59012 19.2812 6.62459 18.2022 7.78095C18.0259 7.97028 17.8334 8.16155 17.6259 8.35285C16.9884 7.84049 16.2587 7.3291 15.4518 6.83627C15.3504 5.99795 15.1924 5.2065 14.9861 4.48137C15.2858 4.42672 15.5764 4.38095 15.8576 4.34581ZM14.2714 11.8399C14.1849 12.3484 14.0766 12.8334 13.9475 13.2892C13.416 13.1555 12.8662 12.9935 12.3025 12.8022C12.6333 12.6558 12.9653 12.5026 13.2973 12.3396H13.2985C13.6316 12.1766 13.9567 12.0107 14.2714 11.8399ZM12.3036 5.1968C12.8673 5.0065 13.4171 4.84351 13.9474 4.7108C14.0765 5.16655 14.1848 5.65158 14.2713 6.16004C13.9658 5.99511 13.6511 5.83311 13.3295 5.67501L13.3254 5.67278L13.3219 5.67085C13.3152 5.66709 13.3082 5.6632 13.3007 5.66037C12.9687 5.4974 12.6355 5.3432 12.3036 5.1968ZM15.5544 8.03768C16.0316 8.35485 16.472 8.67691 16.8743 8.99995C16.4731 9.32201 16.0316 9.64503 15.5544 9.96222C15.5705 9.64602 15.5798 9.32494 15.5798 8.99995C15.5798 8.67496 15.5717 8.3539 15.5544 8.03768ZM19.2972 13.0461C18.8649 13.6804 17.5807 13.8668 15.8575 13.6541C15.5774 13.6199 15.2857 13.5741 14.986 13.5175C15.1923 12.7924 15.3503 12.0009 15.4517 11.1626C16.2586 10.6697 16.9883 10.1583 17.6258 9.64598C17.8333 9.83824 18.0258 10.0295 18.2021 10.2179C19.2811 11.3753 19.7318 12.4089 19.2972 13.0461ZM3.83923 2.69159C3.83923 3.05736 4.15233 3.35387 4.53855 3.35387C4.92477 3.35387 5.23787 3.05736 5.23787 2.69159C5.23787 2.32582 4.92477 2.02931 4.53855 2.02931C4.15233 2.02931 3.83923 2.32582 3.83923 2.69159ZM4.53855 15.9707C4.15233 15.9707 3.83923 15.6742 3.83923 15.3084C3.83923 14.9426 4.15233 14.6461 4.53855 14.6461C4.92477 14.6461 5.23787 14.9426 5.23787 15.3084C5.23787 15.6742 4.92477 15.9707 4.53855 15.9707ZM1.17476 6.8972C1.17476 7.26297 1.48785 7.55948 1.87407 7.55948C2.2603 7.55948 2.57339 7.26297 2.57339 6.8972C2.57339 6.53143 2.2603 6.23491 1.87407 6.23491C1.48785 6.23491 1.17476 6.53143 1.17476 6.8972ZM1.87407 11.7651C1.48785 11.7651 1.17476 11.4686 1.17476 11.1028C1.17476 10.737 1.48785 10.4405 1.87407 10.4405C2.2603 10.4405 2.57339 10.737 2.57339 11.1028C2.57339 11.4686 2.2603 11.7651 1.87407 11.7651Z" fill="black"/>
</svg>
