<svg width="35" height="32" viewBox="0 0 35 32" fill="none" xmlns="http://www.w3.org/2000/svg">
<path id="Union" fill-rule="evenodd" clip-rule="evenodd" d="M18.3411 32C16.6817 32 15.1751 31.0176 13.9453 29.324V27.8131H9.93664C9.66094 29.0117 8.57431 29.9065 7.27583 29.9065C5.76897 29.9065 4.54741 28.7015 4.54741 27.215C4.54741 25.7284 5.76897 24.5234 7.27583 24.5234C8.55625 24.5234 9.63066 25.3935 9.92467 26.567H13.9453V20.6206C13.8963 20.6304 13.8456 20.6355 13.7937 20.6355H5.30163C4.92708 21.6809 3.91644 22.4299 2.72846 22.4299C1.2216 22.4299 4.19617e-05 21.2248 4.19617e-05 19.7383C4.19617e-05 18.2518 1.2216 17.0467 2.72846 17.0467C4.02694 17.0467 5.11357 17.9415 5.38928 19.1402H13.7937C13.8456 19.1402 13.8963 19.1453 13.9453 19.1551V13.1439C13.8963 13.1537 13.8456 13.1589 13.7937 13.1589H5.30163C4.92708 14.2043 3.91644 14.9533 2.72846 14.9533C1.2216 14.9533 4.19617e-05 13.7482 4.19617e-05 12.2617C4.19617e-05 10.7752 1.2216 9.57009 2.72846 9.57009C4.02694 9.57009 5.11357 10.4649 5.38928 11.6636H13.7937C13.8456 11.6636 13.8963 11.6687 13.9453 11.6785V5.38318H9.93664C9.66094 6.58183 8.57431 7.47664 7.27583 7.47664C5.76897 7.47664 4.54741 6.27157 4.54741 4.78505C4.54741 3.29852 5.76897 2.09346 7.27583 2.09346C8.43377 2.09346 9.42324 2.80506 9.81939 3.80915L13.9453 3.80915V2.67586C15.1751 0.982281 16.6818 0 18.3411 0C20.6466 0 22.6573 1.8964 24.0403 4.96207C24.2469 5.41661 24.4397 5.9007 24.6187 6.4073C25.2089 6.28932 25.7833 6.19563 26.3342 6.1245C30.0307 5.65085 32.8951 6.239 34.05 8.00348C35.2029 9.76632 34.3471 12.2473 32.0315 14.8341C31.6872 15.2193 31.3075 15.6079 30.8983 16C31.3075 16.3921 31.6872 16.7807 32.0315 17.1659C34.347 19.7545 35.2029 22.2355 34.05 23.9965C32.8951 25.761 30.0308 26.3509 26.3342 25.8755C25.7814 25.8044 25.2089 25.7107 24.6187 25.5927C24.4397 26.0993 24.2469 26.5817 24.0403 27.0379C22.6575 30.1037 20.6466 32 18.3411 32ZM15.4611 3.56277C16.3363 2.33015 17.325 1.62053 18.3425 1.62053C19.8239 1.62053 21.2443 3.12474 22.3421 5.55718C22.5212 5.95449 22.6903 6.37611 22.8497 6.81675C21.4096 7.19324 19.8947 7.68942 18.3445 8.30364C17.3664 7.91616 16.4017 7.57494 15.4611 7.2813V3.56277ZM15.4611 9.00167C15.6921 9.07822 15.9246 9.15782 16.1585 9.24049C15.9263 9.3475 15.6938 9.45656 15.4611 9.56804V9.00167ZM15.4611 11.4116C16.4262 10.9232 17.3908 10.4789 18.3425 10.0803C19.3242 10.4914 20.3178 10.9512 21.3132 11.4578C21.3155 11.4591 21.3179 11.4604 21.3203 11.4616L21.3239 11.4634L21.328 11.4654L21.3378 11.47C21.3462 11.4739 21.3545 11.4778 21.3624 11.4821C22.3402 11.9801 23.2707 12.5023 24.1501 13.0367C24.2367 13.9926 24.282 14.9833 24.282 15.9983C24.282 17.0132 24.2367 18.0039 24.1501 18.9599C23.259 19.5029 22.3127 20.0304 21.3211 20.5352L21.3172 20.537H21.3152C20.3197 21.0436 19.3242 21.5034 18.3425 21.9146C17.3902 21.5157 16.4267 21.071 15.4611 20.5823V11.4116ZM15.4611 22.435C15.6931 22.5461 15.925 22.6548 16.1567 22.7612C15.9234 22.8432 15.6915 22.9224 15.4611 22.9987V22.435ZM15.4611 24.7164C16.4002 24.4235 17.3631 24.0833 18.3401 23.6962C19.8904 24.3104 21.4072 24.8083 22.8473 25.1848C22.6899 25.6237 22.5207 26.0453 22.3417 26.4426C21.2439 28.8751 19.8235 30.3793 18.3421 30.3793C17.3248 30.3793 16.3362 29.6699 15.4611 28.4376V24.7164ZM26.5937 7.72589C29.5369 7.34766 31.7263 7.67904 32.4642 8.80678C33.2059 9.93799 32.4366 11.777 30.5952 13.8328C30.2942 14.1694 29.9656 14.5094 29.6115 14.8495C28.5236 13.9386 27.2783 13.0295 25.9011 12.1534C25.728 10.663 25.4584 9.25599 25.1063 7.96688C25.6178 7.86973 26.1137 7.78835 26.5937 7.72589ZM23.8865 21.0488C23.739 21.9527 23.5541 22.815 23.3337 23.6252C22.4267 23.3875 21.4883 23.0995 20.5263 22.7595C21.0909 22.4992 21.6575 22.2268 22.2241 21.9371H22.2261C22.7946 21.6473 23.3495 21.3524 23.8865 21.0488ZM20.5281 9.23876C21.4902 8.90044 22.4285 8.61068 23.3335 8.37475C23.5539 9.18497 23.7388 10.0472 23.8864 10.9512C23.365 10.658 22.8279 10.37 22.2791 10.0889L22.272 10.0849L22.2661 10.0815C22.2546 10.0748 22.2427 10.0679 22.2299 10.0629C21.6633 9.77315 21.0947 9.49903 20.5281 9.23876ZM26.0762 14.2892C26.8907 14.8531 27.6422 15.4256 28.3289 15.9999C27.6442 16.5725 26.8907 17.1467 26.0762 17.7106C26.1038 17.1485 26.1195 16.5777 26.1195 15.9999C26.1195 15.4222 26.1057 14.8514 26.0762 14.2892ZM32.4639 23.193C31.7262 24.3208 29.5345 24.6522 26.5935 24.2739C26.1154 24.2132 25.6177 24.1317 25.1062 24.031C25.4583 22.742 25.7279 21.3349 25.901 19.8445C27.2781 18.9684 28.5234 18.0593 29.6114 17.1484C29.9655 17.4902 30.2941 17.8303 30.595 18.1651C32.4365 20.2228 33.2056 22.0602 32.4639 23.193ZM6.08233 4.78505C6.08233 5.4353 6.61668 5.96244 7.27583 5.96244C7.93499 5.96244 8.46934 5.4353 8.46934 4.78505C8.46934 4.13479 7.93499 3.60765 7.27583 3.60765C6.61668 3.60765 6.08233 4.13479 6.08233 4.78505ZM7.27583 28.3923C6.61668 28.3923 6.08233 27.8652 6.08233 27.215C6.08233 26.5647 6.61668 26.0376 7.27583 26.0376C7.93499 26.0376 8.46934 26.5647 8.46934 27.215C8.46934 27.8652 7.93499 28.3923 7.27583 28.3923ZM1.53496 12.2617C1.53496 12.9119 2.06931 13.4391 2.72846 13.4391C3.38762 13.4391 3.92197 12.9119 3.92197 12.2617C3.92197 11.6114 3.38762 11.0843 2.72846 11.0843C2.06931 11.0843 1.53496 11.6114 1.53496 12.2617ZM2.72846 20.9157C2.06931 20.9157 1.53496 20.3886 1.53496 19.7383C1.53496 19.0881 2.06931 18.5609 2.72846 18.5609C3.38762 18.5609 3.92197 19.0881 3.92197 19.7383C3.92197 20.3886 3.38762 20.9157 2.72846 20.9157Z" fill="#0F69AF"/>
</svg>
