<svg xmlns="http://www.w3.org/2000/svg" width="24" height="24" viewBox="0 0 24 24" fill="none">
  <path d="M2.57232 10.4294C1.94623 9.86021 2.26594 8.81915 3.10357 8.69949L7.51583 8.06917C7.82132 8.02553 8.08955 7.84329 8.24265 7.57536L11.1318 2.51943C11.5157 1.84761 12.4843 1.84761 12.8682 2.51943L15.7573 7.57536C15.9104 7.84329 16.1787 8.02553 16.4842 8.06917L20.8964 8.69949C21.7341 8.81915 22.0538 9.86021 21.4277 10.4294L17.9425 13.5977C17.67 13.8454 17.5557 14.2229 17.645 14.5802L18.9909 19.9636C19.195 20.7802 18.3606 21.4683 17.5979 21.1123L12.4229 18.6973C12.1548 18.5723 11.8452 18.5723 11.5771 18.6973L6.40212 21.1123C5.63938 21.4683 4.80495 20.7802 5.00909 19.9636L6.35495 14.5802C6.44427 14.2229 6.32999 13.8454 6.05748 13.5977L2.57232 10.4294Z" fill="#0F69AF"/>
</svg>