<svg width="15" height="14" viewBox="0 0 15 14" fill="none" xmlns="http://www.w3.org/2000/svg">
<path fill-rule="evenodd" clip-rule="evenodd" d="M7.75 14C11.616 14 14.75 10.866 14.75 7C14.75 3.13401 11.616 0 7.75 0C3.88401 0 0.75 3.13401 0.75 7C0.75 10.866 3.88401 14 7.75 14Z" fill="#FFC832"/>
<path fill-rule="evenodd" clip-rule="evenodd" d="M7.74977 4.86673C8.33888 4.86673 8.81644 4.38917 8.81644 3.80007C8.81644 3.21096 8.33888 2.7334 7.74977 2.7334C7.16067 2.7334 6.68311 3.21096 6.68311 3.80007C6.68311 4.38917 7.16067 4.86673 7.74977 4.86673ZM7.01518 10.6933C7.23657 10.9147 7.54228 11.0254 7.93234 11.0254H8.67556C8.82315 11.0254 8.89694 10.9622 8.89694 10.8357V7.18283C8.89694 6.79277 8.78625 6.48705 8.56487 6.26567C8.34348 6.04428 8.03776 5.93359 7.64771 5.93359H6.90449C6.7569 5.93359 6.68311 5.99685 6.68311 6.12335V9.77618C6.68311 10.1662 6.7938 10.472 7.01518 10.6933Z" fill="#0F1A2E"/>
</svg>
