<svg id="Layer_1" data-name="Layer 1" xmlns="http://www.w3.org/2000/svg" viewBox="0 0 380.06 272.95">
  <path fill="#4f358b"
    d="M380.75,86.69c-7.17.21-14.34,0-21.52,0-.21,0-.43-.2-1.11-.54,0-2,.05-4.15,0-6.34-.15-6-1.79-8-7.68-9.51-24.58-6.18-49.5-8.07-74.62-4.76-28.33,3.73-53.91,13.88-74.65,34.33a7.9,7.9,0,0,1-1,.61c-.95-.86-2-1.78-3.07-2.76-18-17.16-39.83-26.5-64-30.89a190.06,190.06,0,0,0-57.23-1.3c-9.27,1.14-18.45,3.23-27.6,5.22-3.78.81-5.66,3.8-5.8,7.68-.09,2.58,0,5.16,0,8.26H23.66c-12.34,0-13.32,1-13.32,13.22V326.47c0,6.62.86,7.94,6.68,10.38h2.23c17.84-9.28,36.86-15.18,56.48-19.17a266.52,266.52,0,0,1,65.61-5.09c18.54.84,36.76,3.87,54.92,7.66,4.89,1,10.49-.3,15.57-1.41a276.38,276.38,0,0,1,87.27-5.18c26,2.61,51,8.6,74.84,19.37,2.57,1.16,5,2.54,7.55,3.82h8.91V92C388.43,88,385.19,86.56,380.75,86.69ZM25.42,317.36V101.73H42.49v4.69q0,88.43,0,176.86c0,7.23,3.27,11,9,10.33,4.17-.49,8.31-1.23,12.48-1.66,19.45-2,38.9-2.94,58.42-.62a169.32,169.32,0,0,1,34.05,7.34A274,274,0,0,0,25.42,317.36Zm186.42-21.31c-1.21.52-2.33,1.27-4.07,2.24V241.55h-14.9q0,26.94.08,53.88v2.82c-42.67-24.89-88.68-25.44-135.63-20.71V83.83c8-1.21,16.1-2.76,24.26-3.59a171.47,171.47,0,0,1,41.8.57c25.73,3.7,48.85,12.89,67,32.22a8.29,8.29,0,0,1,2.17,5.12q0,14.47.07,28.95h15.08q0-14.08,0-28.16a8,8,0,0,1,2.44-6.18c16.53-17,36.93-26.31,60-30.69,22.12-4.22,53-3.42,72.87,2.27V277.49c-3.72-.29-7.35-.51-11-.87-29.86-3-59.55-2.26-88.48,6.32C232.63,286.18,222.38,291.59,211.84,296.05Zm163.59,21.34A272,272,0,0,0,244.2,298.86l-.18-1.14c10.45-2.05,20.84-4.48,31.36-6.06,16.83-2.54,33.79-2,50.7-.79,7.39.53,14.75,1.48,22.1,2.39,6.81.83,10.24-2.1,10.24-9.09q0-88.85,0-177.69v-4.74h17Z"
    transform="translate(-10.34 -63.9)" />
  <path fill="#fdc734"
    d="M200.37,162.28l10.3,19.53,21.76,3.76L217,201.4l3.14,21.86-19.81-9.75-19.81,9.75,3.14-21.86-15.38-15.83,21.75-3.76Z"
    transform="translate(-10.34 -63.9)" />
</svg>
