<svg id="Layer_1" data-name="Layer 1" xmlns="http://www.w3.org/2000/svg" viewBox="0 0 266.29 348.55"><g id="Layer_2" data-name="Layer 2"><path d="M151.64,261.43S123.8,286.74,134,332.64c-28.9.12-40.83,0-40.83,0S74.41,330,79.57,310c9.4-17.11,23.57-42,23.57-42a16.4,16.4,0,0,1,13.33-6.59Z" transform="translate(-47.18 -36.09)" fill="#39baca" fill-rule="evenodd"/><path d="M75.79,339.46c-18.87-6.42-10.12-24.2-10.12-24.2l59.59-108.93V115.75h40.63v89.47l.7,1.27,9.21,16.89h0c.7-9.39-.76-53.73,0-69.5-6.05-4-7.7-7.14-7.71-13.41,1.36-7.14,5.51-12,14.57-12.65h0c.43-8.36-.19-13.82.47-18.35,0,0,0,0,.05,0,1.63-.14,8.3-1.06,7.4-7a7.75,7.75,0,0,0-7-7H107.23s-7.34.23-7,7,8.28,7,8.28,7v91.15a5.75,5.75,0,0,1-.69,2.72L51,307.2c-15,35,19.24,48.42,23,49.67h69.44l-7-17.41S99.31,340.09,75.79,339.46Z" transform="translate(-47.18 -36.09)" fill="#39baca" fill-rule="evenodd"/><path d="M247.52,246.48V146.74s5.6,1,6.63-4.19-5-5.76-5-5.76h-65s-7.92-1.21-7.7,5,7.7,5,7.7,5V247.93s-52.44,20.55-42.34,80.54c13.58,59.22,81.08,58,91.8,55.12S289,370.69,295,317.25C291.61,272.11,273.41,259,247.52,246.48Zm-29.1,122.8c-33.49,0-60.65-25.46-60.65-56.87,0-25.72,18.22-47.45,43.21-54.48V153.57h29.76V256.71c27.58,5.34,48.32,28.25,48.32,55.7C279.06,343.82,251.91,369.28,218.42,369.28Z" transform="translate(-47.18 -36.09)" fill="#39baca" fill-rule="evenodd"/><path d="M307,36.09H198.72s-8.43,1.19-8.3,8.3S198,52.67,198,52.67V128.4h16.58V52.88H289.8l.39,14.86H274.35v.06a5.17,5.17,0,0,0,0,10.34h15.84v13H267.48a5.21,5.21,0,1,0,0,10.41h22.71v12.86H274.57a5.2,5.2,0,1,0,0,10.4h15.62V270s29.86,43.33,0,86.92c0,0,16.79-2.18,16.79-15.29s-.23-289-.23-289a9.39,9.39,0,0,0,6.65-8.14C314.27,37.63,307,36.09,307,36.09Z" transform="translate(-47.18 -36.09)" fill="#4f358b" fill-rule="evenodd"/></g></svg>