<svg id="Layer_1" data-name="Layer 1" xmlns="http://www.w3.org/2000/svg" viewBox="0 0 380.8 273.7"><defs><style>.cls-1{fill:#fff;}.cls-2{fill:#39baca;}</style></defs><path fill-opacity="0" d="M231.32,174.6c4.51,13.06,1.24,26.55,2.19,39.81.2,2.81-1.38,3.79-4,3.76-5.31-.07-10.63,0-15.95,0a8.11,8.11,0,0,1-1.57-.32c.42-.37.77-.95,1.25-1.07,3.58-1,7.13-2.24,10.88-2.06,3.53.17,5-1.22,4.94-4.8-.16-13-.17-25.92-.23-38.88C230.67,171.49,229.48,174.1,231.32,174.6Z" transform="translate(-9.6 -63.15)"/><path fill-opacity="0" d="M199.29,197.36c0,5.3,0,10.61,0,15.91,0,2.17-.71,2.7-2.87,1.89-5.51-2.06-11.15-3.76-17.08-4-2.16-.08-2.62-1.14-2.61-3q0-15.91,0-31.83c0-1.84.29-2.72,2.71-2.41a71.51,71.51,0,0,1,15.92,3.77c2.91,1.06,4.1,2.41,4,5.48C199.14,187.92,199.29,192.64,199.29,197.36Z" transform="translate(-9.6 -63.15)"/><path fill-opacity="0" d="M225.43,192.55c0,5.11-.05,10.23,0,15.34,0,2.12-.61,3-2.93,3.37-5.58.86-11.25,1.56-16.46,4.06-2.5,1.2-3.13-.17-3.12-2.39,0-10.23.07-20.45,0-30.68,0-2.25,1.24-3.16,2.89-3.91a51.1,51.1,0,0,1,17.62-4.22c2.44-.17,2,1.26,2,2.5C225.46,181.93,225.43,187.24,225.43,192.55Z" transform="translate(-9.6 -63.15)"/><path fill="#39baca" d="M390.4,92V336.85h-8.91c-2.51-1.28-5-2.66-7.55-3.82-23.83-10.77-48.87-16.76-74.84-19.37a276.38,276.38,0,0,0-87.27,5.18c-5.08,1.11-10.68,2.44-15.57,1.41-18.16-3.79-36.38-6.82-54.92-7.66a266.52,266.52,0,0,0-65.61,5.09c-19.62,4-38.64,9.89-56.48,19.17H17c-5.82-2.44-6.68-3.76-6.68-10.38V99.88c0-12.25,1-13.22,13.32-13.22H42.37c0-3.1-.07-5.68,0-8.26.14-3.88,2-6.87,5.8-7.68,9.15-2,18.33-4.08,27.6-5.22A190.06,190.06,0,0,1,133,66.8c24.22,4.39,46,13.73,64,30.89,1,1,2.12,1.9,3.07,2.76a7.9,7.9,0,0,0,1-.61c20.74-20.45,46.32-30.6,74.65-34.33,25.12-3.31,50-1.42,74.62,4.76,5.89,1.48,7.53,3.47,7.68,9.51.06,2.19,0,4.38,0,6.34.68.34.9.54,1.11.54,7.18,0,14.35.24,21.52,0C385.19,86.56,388.43,88,390.4,92ZM57.32,277.54c46.95-4.73,93-4.18,135.63,20.71v-2.82q-.13-88.63-.36-177.28a8.29,8.29,0,0,0-2.17-5.12c-18.19-19.33-41.31-28.52-67-32.22a171.47,171.47,0,0,0-41.8-.57c-8.16.83-16.24,2.38-24.26,3.59Zm150.45,20.75c1.74-1,2.86-1.72,4.07-2.24,10.54-4.46,20.79-9.87,31.69-13.11,28.93-8.58,58.62-9.32,88.48-6.32,3.62.36,7.25.58,11,.87V84.34c-19.87-5.69-50.75-6.49-72.87-2.27-23,4.38-43.42,13.67-60,30.69a8,8,0,0,0-2.44,6.18q.1,87.51.05,175ZM358.42,101.74v4.74q0,88.84,0,177.69c0,7-3.43,9.92-10.24,9.09-7.35-.91-14.71-1.86-22.1-2.39-16.91-1.21-33.87-1.75-50.7.79-10.52,1.58-20.91,4-31.36,6.06l.18,1.14a272,272,0,0,1,131.23,18.53V101.74Zm-333,0V317.36a274,274,0,0,1,131-18.69,169.32,169.32,0,0,0-34.05-7.34c-19.52-2.32-39-1.35-58.42.62-4.17.43-8.31,1.17-12.48,1.66-5.68.68-9-3.1-9-10.33q0-88.44,0-176.86v-4.69Z" transform="translate(-9.6 -63.15)"/><path fill-opacity="0" d="M19.25,336.85c17.84-9.28,36.86-15.18,56.48-19.17a266.52,266.52,0,0,1,65.61-5.09c18.54.84,36.76,3.87,54.92,7.66,4.89,1,10.49-.3,15.57-1.41a276.38,276.38,0,0,1,87.27-5.18c26,2.61,51,8.6,74.84,19.37,2.57,1.16,5,2.54,7.55,3.82Z" transform="translate(-9.6 -63.15)"/><path fill-opacity="0" d="M390.4,92c-2-4.05-5.21-5.45-9.65-5.32-7.17.21-14.34,0-21.52,0-.21,0-.43-.2-1.11-.54,0-2,.05-4.15,0-6.34-.15-6-1.79-8-7.68-9.51-24.58-6.18-49.5-8.07-74.62-4.76-28.33,3.73-53.91,13.88-74.65,34.33a7.9,7.9,0,0,1-1,.61c-.95-.86-2-1.78-3.07-2.76-18-17.16-39.83-26.5-64-30.89a190.06,190.06,0,0,0-57.23-1.3c-9.27,1.14-18.45,3.23-27.6,5.22-3.78.81-5.66,3.8-5.8,7.68-.09,2.58,0,5.16,0,8.26H23.66c-12.34,0-13.32,1-13.32,13.22V326.47c0,6.62.86,7.94,6.68,10.38H9.6V63.15H390.4Z" transform="translate(-9.6 -63.15)"/><path fill-opacity="0" d="M57.32,277.54V83.83c8-1.21,16.1-2.76,24.26-3.59a171.47,171.47,0,0,1,41.8.57c25.73,3.7,48.85,12.89,67,32.22a8.29,8.29,0,0,1,2.17,5.12q.3,88.64.36,177.28v2.82C150.28,273.36,104.27,272.81,57.32,277.54Z" transform="translate(-9.6 -63.15)"/><path fill-opacity="0" d="M207.77,298.29V294q0-87.53-.05-175a8,8,0,0,1,2.44-6.18c16.53-17,36.93-26.31,60-30.69,22.12-4.22,53-3.42,72.87,2.27V277.49c-3.72-.29-7.35-.51-11-.87-29.86-3-59.55-2.26-88.48,6.32-10.9,3.24-21.15,8.65-31.69,13.11C210.63,296.57,209.51,297.32,207.77,298.29Z" transform="translate(-9.6 -63.15)"/><path fill-opacity="0" d="M358.42,101.74h17V317.39A272,272,0,0,0,244.2,298.86l-.18-1.14c10.45-2.05,20.84-4.48,31.36-6.06,16.83-2.54,33.79-2,50.7-.79,7.39.53,14.75,1.48,22.1,2.39,6.81.83,10.24-2.1,10.24-9.09q0-88.85,0-177.69Z" transform="translate(-9.6 -63.15)"/><path fill-opacity="0" d="M25.42,101.73H42.49v4.69q0,88.43,0,176.86c0,7.23,3.27,11,9,10.33,4.17-.49,8.31-1.23,12.48-1.66,19.45-2,38.9-2.94,58.42-.62a169.32,169.32,0,0,1,34.05,7.34,274,274,0,0,0-131,18.69Z" transform="translate(-9.6 -63.15)"/></svg>
