<svg width="191" height="175" viewBox="0 0 191 175" fill="none" xmlns="http://www.w3.org/2000/svg">
<g clip-path="url(#clip0_1676_11092)">
<path d="M25.7149 148.123C32.4772 159.306 44.5195 164.589 51.986 167.863C84.2624 182.021 125.849 173.695 152.384 155.354C178.575 137.249 199.384 98.1215 185.856 58.8923C169.195 10.5803 112.887 1.98757 101.067 0.665284C60.6471 -3.85921 26.1738 16.2835 19.422 29.3014C13.3787 40.9485 15.1718 50.9776 15.1718 50.9776C15.6941 53.8989 16.5949 56.1886 17.2314 57.6017C18.7644 59.7119 21.0164 63.138 22.9745 67.7068C22.9745 67.7068 25.4675 73.9613 26.6664 80.9719C32.3271 114.063 13.8523 128.511 25.7149 148.123Z" fill="#CADDFF"/>
<path d="M38.4635 111.642L40.7831 112.308L42.0497 109.999C42.6143 110.056 43.1768 110.069 43.7308 110.031L44.9128 112.379L47.2536 111.796L47.1944 109.165C47.7061 108.934 48.1967 108.662 48.6619 108.351L50.8653 109.796L52.6013 108.123L51.2353 105.878C51.5609 105.428 51.8485 104.946 52.098 104.437L54.7285 104.589L55.3946 102.274L53.0834 101.009C53.1405 100.445 53.1532 99.8832 53.1151 99.3298L55.4665 98.1491L54.8829 95.8108L52.2482 95.8699C52.0177 95.3587 51.7449 94.8687 51.4341 94.404L52.8804 92.203L51.2057 90.4688L48.9579 91.8334C48.5075 91.5081 48.0254 91.2208 47.5158 90.9715L47.6681 88.3439L45.3484 87.6785L44.0818 89.9872C43.5172 89.9302 42.9548 89.9175 42.4007 89.9555L41.2187 87.6067L38.8779 88.1897L38.9371 90.8216C38.4254 91.0518 37.9348 91.3243 37.4696 91.6348L35.2663 90.19L33.5302 91.8629L34.8962 94.1083C34.5706 94.5582 34.283 95.0398 34.0335 95.5489L31.403 95.3968L30.7369 97.7139L33.0481 98.9792C32.991 99.5432 32.9783 100.105 33.0164 100.658L30.665 101.839L31.2487 104.178L33.8834 104.118C34.1139 104.63 34.3866 105.12 34.6975 105.584L33.2511 107.785L34.9258 109.519L37.1736 108.155C37.624 108.48 38.1061 108.767 38.6157 109.017L38.4635 111.644V111.642ZM37.0954 98.2821C38.0406 94.9891 41.4788 93.0859 44.7754 94.0301C48.0719 94.9743 49.9772 98.4089 49.0319 101.702C48.0868 104.995 44.6485 106.898 41.3519 105.954C38.0554 105.01 36.1502 101.575 37.0954 98.2821Z" fill="#99B9FF"/>
<path d="M45.949 112.122C45.8306 112.122 45.7207 112.056 45.6657 111.946L44.5767 109.783C44.1453 109.802 43.7055 109.794 43.2636 109.758L42.0985 111.883C42.0266 112.014 41.8743 112.075 41.7327 112.035L39.4151 111.37C39.2734 111.33 39.1783 111.194 39.1867 111.047L39.3263 108.626C38.933 108.423 38.5566 108.197 38.1993 107.952L36.1291 109.209C36.0022 109.285 35.8394 109.264 35.7358 109.158L34.0611 107.424C33.9575 107.318 33.9427 107.154 34.0251 107.029L35.3573 105.001C35.1226 104.634 34.909 104.249 34.7229 103.856L32.2954 103.911C32.1495 103.916 32.0163 103.814 31.9804 103.671L31.3968 101.332C31.3608 101.189 31.4285 101.039 31.5617 100.973L33.727 99.8853C33.708 99.4544 33.7164 99.0151 33.7524 98.5736L31.6251 97.4097C31.494 97.3379 31.4327 97.1879 31.4729 97.0443L32.139 94.7271C32.1792 94.5856 32.3166 94.4906 32.4625 94.499L34.8858 94.6384C35.0888 94.2455 35.315 93.8696 35.5603 93.5126L34.3022 91.4447C34.226 91.3179 34.2472 91.1553 34.3529 91.0518L36.0889 89.3789C36.1968 89.2754 36.3596 89.2606 36.4844 89.343L38.5143 90.6737C38.8822 90.4392 39.2671 90.2259 39.6604 90.04L39.6054 87.6151C39.6012 87.4673 39.7027 87.3363 39.8465 87.3004L42.1873 86.7174C42.3311 86.6815 42.4812 86.7512 42.5468 86.8822L43.6357 89.0451C44.0671 89.0261 44.5069 89.0346 44.9489 89.0705L46.114 86.9455C46.1859 86.8146 46.3381 86.7533 46.4798 86.7934L48.7973 87.4588C48.939 87.4989 49.0342 87.6341 49.0257 87.782L48.8861 90.2027C49.2795 90.4054 49.6558 90.6314 50.0132 90.8765L52.0833 89.6197C52.2102 89.5436 52.373 89.5647 52.4766 89.6704L54.1514 91.4045C54.255 91.5102 54.2698 91.6749 54.1873 91.7995L52.8551 93.8273C53.0899 94.1949 53.3034 94.5772 53.4895 94.9722L55.917 94.9172C56.0714 94.9109 56.1961 95.0144 56.2321 95.1581L56.8157 97.4963C56.8516 97.64 56.784 97.7899 56.6507 97.8554L54.4855 98.9433C54.5045 99.3742 54.496 99.8135 54.4601 100.255L56.5873 101.419C56.7184 101.491 56.7797 101.641 56.7396 101.784L56.0735 104.101C56.0333 104.243 55.898 104.338 55.75 104.33L53.3267 104.19C53.1237 104.583 52.8974 104.959 52.6521 105.316L53.9103 107.386C53.9864 107.513 53.9653 107.675 53.8596 107.779L52.1235 109.452C52.0157 109.555 51.8529 109.57 51.7281 109.488L49.7002 108.157C49.3323 108.391 48.9475 108.605 48.5542 108.791L48.6091 111.216C48.6134 111.363 48.5119 111.494 48.3681 111.53L46.0273 112.113C46.0019 112.12 45.9765 112.122 45.9512 112.122H45.949ZM44.767 109.139C44.8854 109.139 44.9954 109.207 45.0504 109.315L46.1182 111.435L47.9663 110.975L47.9135 108.596C47.9113 108.47 47.9832 108.353 48.0995 108.301C48.5922 108.079 49.0722 107.815 49.5226 107.513C49.6284 107.443 49.7658 107.441 49.8736 107.513L51.8634 108.818L53.2336 107.496L51.9988 105.466C51.9332 105.358 51.9374 105.219 52.0136 105.115C52.3265 104.682 52.6077 104.213 52.8488 103.721C52.9059 103.607 53.0243 103.537 53.1512 103.544L55.5279 103.681L56.0523 101.852L53.9632 100.709C53.8511 100.648 53.7877 100.525 53.8003 100.399C53.8553 99.8515 53.868 99.3066 53.8321 98.7743C53.8236 98.6475 53.8913 98.5271 54.0055 98.4701L56.1285 97.4034L55.6675 95.5573L53.2865 95.6101C53.1575 95.6143 53.0433 95.5404 52.9905 95.4242C52.7684 94.9299 52.502 94.4525 52.2017 94.0026C52.132 93.897 52.1299 93.7597 52.2017 93.652L53.5085 91.6643L52.1848 90.2956L50.1528 91.5292C50.0428 91.5946 49.9054 91.5904 49.8017 91.5144C49.3704 91.2039 48.8988 90.9229 48.4061 90.68C48.292 90.623 48.2222 90.5047 48.2285 90.378L48.366 88.0038L46.5348 87.4799L45.3908 89.5647C45.3295 89.6767 45.209 89.7401 45.08 89.7274C44.5323 89.6704 43.9846 89.6598 43.4539 89.6957C43.3249 89.7042 43.2065 89.6366 43.1494 89.5225L42.0816 87.3997L40.2334 87.8601L40.2863 90.2386C40.2884 90.3653 40.2165 90.4815 40.1002 90.5343C39.6075 90.7561 39.1275 91.0201 38.6771 91.3222C38.5714 91.3919 38.434 91.394 38.3261 91.3222L36.3363 90.0168L34.9661 91.3391L36.201 93.369C36.2666 93.4788 36.2623 93.6161 36.1862 93.7196C35.8733 94.1505 35.592 94.6215 35.351 95.1137C35.296 95.2278 35.1755 95.2975 35.0486 95.2911L32.6718 95.1538L32.1474 96.9831L34.2366 98.1258C34.3487 98.1871 34.4121 98.3096 34.3994 98.4363C34.3444 98.9834 34.3318 99.5305 34.3677 100.061C34.3762 100.187 34.3085 100.308 34.1943 100.365L32.0713 101.432L32.5323 103.278L34.9133 103.225C35.0422 103.218 35.1564 103.297 35.2093 103.411C35.4313 103.903 35.6956 104.382 35.998 104.832C36.0678 104.938 36.0699 105.075 35.998 105.183L34.6912 107.171L36.0149 108.539L38.047 107.306C38.157 107.24 38.2944 107.244 38.398 107.321C38.8315 107.631 39.3009 107.912 39.7936 108.155C39.9078 108.212 39.9776 108.33 39.9712 108.457L39.8338 110.831L41.665 111.355L42.809 109.268C42.8703 109.156 42.9908 109.091 43.1198 109.105C43.6653 109.16 44.213 109.173 44.7459 109.137C44.7522 109.137 44.7607 109.137 44.767 109.137V109.139ZM44.1115 105.941C43.5068 105.941 42.8999 105.857 42.3015 105.686C38.8421 104.695 36.8354 101.077 37.8271 97.621C38.8188 94.1653 42.441 92.1607 45.9004 93.1514C47.5751 93.6309 48.9644 94.7356 49.8102 96.2585C50.656 97.7815 50.8569 99.5431 50.3748 101.216C49.8948 102.889 48.7889 104.277 47.2643 105.122C46.2831 105.665 45.2026 105.941 44.1094 105.941H44.1115ZM38.4382 97.7942C37.5416 100.914 39.3538 104.18 42.477 105.075C43.9889 105.508 45.5811 105.329 46.9577 104.566C48.3343 103.804 49.3323 102.553 49.7658 101.041C50.1993 99.5305 50.0195 97.9399 49.2562 96.5648C48.4928 95.1897 47.2389 94.1927 45.727 93.7597C42.606 92.8641 39.3348 94.6743 38.4382 97.7942Z" fill="#5479F7"/>
<path d="M38.2626 157.479L42.2295 158.615L44.3948 154.665C45.3611 154.764 46.3211 154.783 47.2706 154.72L49.2942 158.738L53.2991 157.741L53.1976 153.237C54.073 152.844 54.9125 152.38 55.7097 151.847L59.4778 154.321L62.4466 151.457L60.1079 147.612C60.6641 146.843 61.1567 146.017 61.586 145.147L66.0857 145.407L67.2234 141.444L63.2692 139.281C63.3686 138.316 63.3876 137.357 63.3242 136.409L67.346 134.387L66.3479 130.387L61.8397 130.488C61.4464 129.614 60.9812 128.775 60.4484 127.979L62.9245 124.215L60.0572 121.249L56.2087 123.585C55.439 123.03 54.6122 122.537 53.741 122.109L54.0011 117.614L50.0343 116.477L47.869 120.427C46.9026 120.328 45.9426 120.309 44.9932 120.372L42.9696 116.355L38.9646 117.352L39.0661 121.855C38.1907 122.248 37.3512 122.713 36.554 123.245L32.7859 120.772L29.8171 123.636L32.1558 127.48C31.5997 128.249 31.107 129.075 30.6777 129.945L26.178 129.687L25.0404 133.65L28.9946 135.813C28.8952 136.778 28.8761 137.737 28.9396 138.686L24.9177 140.707L25.9158 144.708L30.424 144.606C30.8173 145.481 31.2825 146.319 31.8154 147.116L29.3392 150.88L32.2066 153.846L36.055 151.509C36.8247 152.065 37.6515 152.557 38.5227 152.986L38.2626 157.481V157.479ZM35.9218 134.617C37.5394 128.982 43.4242 125.725 49.0658 127.341C54.7074 128.957 57.968 134.835 56.3504 140.471C54.7328 146.106 48.848 149.363 43.2064 147.747C37.5648 146.131 34.3042 140.253 35.9218 134.617Z" fill="#99B9FF"/>
<path d="M51.0724 158.074C50.954 158.074 50.844 158.009 50.7891 157.899L48.8585 154.067C48.0338 154.112 47.1922 154.095 46.3506 154.019L44.2847 157.785C44.2128 157.916 44.0627 157.977 43.9189 157.937L39.952 156.801C39.8104 156.76 39.7152 156.625 39.7237 156.477L39.9711 152.189C39.2162 151.809 38.4951 151.376 37.8185 150.903L34.1497 153.129C34.0229 153.208 33.86 153.184 33.7564 153.079L30.8891 150.113C30.7855 150.007 30.7707 149.843 30.8532 149.718L33.213 146.127C32.7584 145.428 32.3503 144.693 31.9992 143.939L27.7004 144.036C27.5587 144.045 27.4213 143.939 27.3853 143.795L26.3872 139.795C26.3513 139.651 26.419 139.501 26.5522 139.436L30.388 137.507C30.3436 136.683 30.3605 135.843 30.4366 135.002L26.6664 132.938C26.5353 132.866 26.4739 132.714 26.5141 132.573L27.6517 128.61C27.6919 128.469 27.8273 128.374 27.9753 128.382L32.2678 128.629C32.6484 127.875 33.0819 127.153 33.5555 126.479L31.3268 122.814C31.2507 122.687 31.2718 122.525 31.3776 122.421L34.3464 119.557C34.4521 119.453 34.617 119.439 34.7418 119.521L38.3365 121.878C39.0364 121.424 39.7702 121.016 40.5272 120.666L40.4299 116.372C40.4257 116.224 40.5272 116.093 40.671 116.057L44.6759 115.06C44.8197 115.024 44.9698 115.092 45.0354 115.225L46.966 119.056C47.7906 119.012 48.6322 119.029 49.4738 119.105L51.5397 115.339C51.6116 115.208 51.7618 115.146 51.9055 115.187L55.8724 116.323C56.0141 116.363 56.1093 116.498 56.1008 116.646L55.8534 120.934C56.6083 121.314 57.3293 121.747 58.006 122.22L61.6747 119.994C61.8016 119.918 61.9644 119.939 62.068 120.045L64.9354 123.01C65.039 123.116 65.0538 123.281 64.9713 123.405L62.6115 126.996C63.0661 127.695 63.4742 128.428 63.8252 129.185L68.1241 129.09C68.2658 129.087 68.4032 129.187 68.4392 129.33L69.4372 133.331C69.4732 133.475 69.4055 133.625 69.2723 133.69L65.4365 135.619C65.4809 136.442 65.464 137.283 65.3879 138.124L69.1581 140.187C69.2892 140.259 69.3505 140.411 69.3103 140.553L68.1727 144.516C68.1325 144.657 67.993 144.754 67.8492 144.744L63.5567 144.497C63.1761 145.251 62.7426 145.971 62.2689 146.647L64.4976 150.312C64.5738 150.438 64.5526 150.601 64.4469 150.705L61.4781 153.569C61.3702 153.672 61.2074 153.687 61.0827 153.605L57.4879 151.247C56.788 151.702 56.0543 152.109 55.2973 152.46L55.3945 156.754C55.3988 156.902 55.2973 157.033 55.1535 157.069L51.1485 158.066C51.1232 158.072 51.0978 158.074 51.0724 158.074ZM49.0488 153.423C49.1672 153.423 49.2772 153.491 49.3321 153.598L51.2416 157.39L54.7538 156.515L54.6587 152.265C54.6566 152.139 54.7285 152.023 54.8448 151.97C55.7011 151.585 56.53 151.125 57.3103 150.605C57.416 150.533 57.5535 150.533 57.6613 150.605L61.218 152.939L63.8231 150.428L61.6176 146.801C61.5521 146.693 61.5563 146.554 61.6324 146.45C62.1738 145.701 62.6622 144.885 63.083 144.032C63.1401 143.918 63.2585 143.848 63.3854 143.854L67.6335 144.099L68.6316 140.623L64.8994 138.58C64.7873 138.519 64.7239 138.396 64.7366 138.27C64.8339 137.323 64.8529 136.375 64.7916 135.452C64.7831 135.325 64.8508 135.205 64.965 135.148L68.7606 133.24L67.8851 129.732L63.6307 129.827C63.5017 129.833 63.3875 129.757 63.3346 129.641C62.9498 128.785 62.4888 127.957 61.9687 127.178C61.8989 127.072 61.8968 126.935 61.9687 126.827L64.3052 123.274L61.791 120.672L58.1604 122.875C58.0504 122.941 57.913 122.937 57.8093 122.86C57.0587 122.32 56.2425 121.832 55.3882 121.411C55.274 121.354 55.2042 121.236 55.2106 121.109L55.4559 116.866L51.9753 115.869L49.9306 119.597C49.8692 119.709 49.7487 119.772 49.6197 119.76C48.6703 119.662 47.7209 119.643 46.7989 119.705C46.6636 119.713 46.5515 119.643 46.4944 119.532L44.585 115.74L41.0727 116.614L41.1679 120.864C41.17 120.991 41.096 121.107 40.9818 121.16C40.1254 121.545 39.2965 122.005 38.5163 122.525C38.4105 122.594 38.2731 122.596 38.1652 122.525L34.6086 120.191L32.0035 122.702L34.2089 126.329C34.2745 126.439 34.2703 126.576 34.1941 126.679C33.6528 127.429 33.1644 128.243 32.7436 129.098C32.6886 129.212 32.5681 129.282 32.4412 129.275L28.1931 129.03L27.195 132.507L30.9272 134.55C31.0392 134.611 31.1027 134.734 31.09 134.86C30.9927 135.807 30.9737 136.755 31.035 137.68C31.0435 137.807 30.9758 137.927 30.8616 137.984L27.066 139.892L27.9414 143.4L32.1959 143.305C32.3249 143.299 32.4391 143.375 32.4919 143.491C32.8768 144.344 33.3356 145.175 33.8579 145.954C33.9298 146.06 33.9298 146.197 33.8579 146.305L31.5214 149.858L34.0355 152.46L37.6662 150.257C37.7741 150.191 37.9136 150.195 38.0172 150.271C38.7679 150.812 39.582 151.3 40.4384 151.721C40.5526 151.778 40.6223 151.896 40.616 152.023L40.3707 156.266L43.8513 157.263L45.896 153.535C45.9573 153.423 46.0779 153.36 46.2069 153.372C47.1542 153.469 48.1036 153.488 49.0298 153.427C49.0361 153.427 49.0446 153.427 49.0509 153.427L49.0488 153.423ZM47.926 147.498C46.9131 147.498 45.8939 147.357 44.8916 147.069C42.0814 146.265 39.7554 144.414 38.3386 141.86C36.9219 139.307 36.5857 136.354 37.3913 133.549C39.0555 127.755 45.1263 124.394 50.9265 126.056C56.7267 127.719 60.0909 133.783 58.4268 139.577C57.6212 142.384 55.7688 144.708 53.2123 146.123C51.5672 147.033 49.7551 147.498 47.9239 147.498H47.926ZM47.9154 126.263C43.4326 126.263 39.2986 129.21 38.0024 133.722C37.2433 136.366 37.5605 139.146 38.8948 141.552C40.229 143.958 42.4218 145.701 45.0692 146.459C47.7166 147.217 50.4994 146.9 52.9078 145.567C55.3163 144.235 57.0608 142.044 57.8199 139.4C59.3868 133.941 56.2171 128.228 50.7531 126.663C49.8079 126.392 48.8521 126.261 47.9154 126.261V126.263Z" fill="#5479F7"/>
<path d="M107.26 0.0866699H173.253C175.152 0.0866699 176.691 1.62652 176.691 3.52123V132.248C176.691 133.874 175.37 135.194 173.741 135.194H107.258V0.0866699H107.26Z" fill="black"/>
<path d="M169.77 0.316895H105.85C104.328 0.316895 103.094 1.54914 103.094 3.06919V132.556C103.094 134.076 104.328 135.308 105.85 135.308H169.77C171.292 135.308 172.525 134.076 172.525 132.556V3.06919C172.525 1.54914 171.292 0.316895 169.77 0.316895Z" fill="#5479F7"/>
<path d="M123.743 42.8792H115.898C115.373 42.8792 114.947 43.3047 114.947 43.8297V50.9459C114.947 51.4709 115.373 51.8965 115.898 51.8965H123.743C124.269 51.8965 124.695 51.4709 124.695 50.9459V43.8297C124.695 43.3047 124.269 42.8792 123.743 42.8792Z" fill="white"/>
<path d="M136.113 42.8792H128.164C127.639 42.8792 127.213 43.3047 127.213 43.8297V50.9459C127.213 51.4709 127.639 51.8965 128.164 51.8965H136.113C136.639 51.8965 137.065 51.4709 137.065 50.9459V43.8297C137.065 43.3047 136.639 42.8792 136.113 42.8792Z" fill="white"/>
<path d="M148.405 42.9954H140.664C140.138 42.9954 139.712 43.4209 139.712 43.9459V51.0621C139.712 51.5871 140.138 52.0127 140.664 52.0127H148.405C148.931 52.0127 149.357 51.5871 149.357 51.0621V43.9459C149.357 43.4209 148.931 42.9954 148.405 42.9954Z" fill="white"/>
<path d="M160.557 42.9932H152.816C152.29 42.9932 151.864 43.4187 151.864 43.9437V51.0599C151.864 51.5849 152.29 52.0105 152.816 52.0105H160.557C161.083 52.0105 161.509 51.5849 161.509 51.0599V43.9437C161.509 43.4187 161.083 42.9932 160.557 42.9932Z" fill="white"/>
<path d="M123.743 55.1326H115.898C115.373 55.1326 114.947 55.5581 114.947 56.0831V63.1994C114.947 63.7243 115.373 64.1499 115.898 64.1499H123.743C124.269 64.1499 124.695 63.7243 124.695 63.1994V56.0831C124.695 55.5581 124.269 55.1326 123.743 55.1326Z" fill="white"/>
<path d="M136.113 55.1326H128.164C127.639 55.1326 127.213 55.5581 127.213 56.0831V63.1994C127.213 63.7243 127.639 64.1499 128.164 64.1499H136.113C136.639 64.1499 137.065 63.7243 137.065 63.1994V56.0831C137.065 55.5581 136.639 55.1326 136.113 55.1326Z" fill="white"/>
<path d="M148.405 55.2485H140.664C140.138 55.2485 139.712 55.6741 139.712 56.1991V63.3153C139.712 63.8403 140.138 64.2658 140.664 64.2658H148.405C148.931 64.2658 149.357 63.8403 149.357 63.3153V56.1991C149.357 55.6741 148.931 55.2485 148.405 55.2485Z" fill="white"/>
<path d="M160.557 55.2485H152.816C152.29 55.2485 151.864 55.6741 151.864 56.1991V63.3153C151.864 63.8403 152.29 64.2658 152.816 64.2658H160.557C161.083 64.2658 161.509 63.8403 161.509 63.3153V56.1991C161.509 55.6741 161.083 55.2485 160.557 55.2485Z" fill="white"/>
<path d="M123.993 67.3879H116.148C115.622 67.3879 115.196 67.8135 115.196 68.3385V75.4547C115.196 75.9797 115.622 76.4052 116.148 76.4052H123.993C124.518 76.4052 124.944 75.9797 124.944 75.4547V68.3385C124.944 67.8135 124.518 67.3879 123.993 67.3879Z" fill="white"/>
<path d="M136.155 67.3879H128.207C127.681 67.3879 127.255 67.8135 127.255 68.3385V75.4547C127.255 75.9797 127.681 76.4052 128.207 76.4052H136.155C136.681 76.4052 137.107 75.9797 137.107 75.4547V68.3385C137.107 67.8135 136.681 67.3879 136.155 67.3879Z" fill="white"/>
<path d="M148.652 67.502H140.911C140.385 67.502 139.959 67.9275 139.959 68.4525V75.5687C139.959 76.0937 140.385 76.5193 140.911 76.5193H148.652C149.178 76.5193 149.604 76.0937 149.604 75.5687V68.4525C149.604 67.9275 149.178 67.502 148.652 67.502Z" fill="white"/>
<path d="M160.805 67.502H153.063C152.538 67.502 152.112 67.9275 152.112 68.4525V75.5687C152.112 76.0937 152.538 76.5193 153.063 76.5193H160.805C161.33 76.5193 161.756 76.0937 161.756 75.5687V68.4525C161.756 67.9275 161.33 67.502 160.805 67.502Z" fill="white"/>
<path d="M123.993 79.6411H116.148C115.622 79.6411 115.196 80.0667 115.196 80.5916V87.7079C115.196 88.2329 115.622 88.6584 116.148 88.6584H123.993C124.518 88.6584 124.944 88.2329 124.944 87.7079V80.5916C124.944 80.0667 124.518 79.6411 123.993 79.6411Z" fill="white"/>
<path d="M136.367 79.6411H128.418C127.893 79.6411 127.467 80.0667 127.467 80.5916V87.7079C127.467 88.2329 127.893 88.6584 128.418 88.6584H136.367C136.892 88.6584 137.318 88.2329 137.318 87.7079V80.5916C137.318 80.0667 136.892 79.6411 136.367 79.6411Z" fill="white"/>
<path d="M148.652 79.7573H140.911C140.385 79.7573 139.959 80.1829 139.959 80.7078V87.8241C139.959 88.3491 140.385 88.7746 140.911 88.7746H148.652C149.178 88.7746 149.604 88.3491 149.604 87.8241V80.7078C149.604 80.1829 149.178 79.7573 148.652 79.7573Z" fill="white"/>
<path d="M160.803 79.7573H153.061C152.536 79.7573 152.11 80.1829 152.11 80.7078V87.8241C152.11 88.3491 152.536 88.7746 153.061 88.7746H160.803C161.328 88.7746 161.754 88.3491 161.754 87.8241V80.7078C161.754 80.1829 161.328 79.7573 160.803 79.7573Z" fill="white"/>
<path d="M122.774 43.2405H115.651C115.125 43.2405 114.699 43.666 114.699 44.191V51.3073C114.699 51.8322 115.125 52.2578 115.651 52.2578H122.774C123.3 52.2578 123.726 51.8322 123.726 51.3073V44.191C123.726 43.666 123.3 43.2405 122.774 43.2405Z" fill="#99B9FF"/>
<path d="M135.041 43.2405H127.917C127.391 43.2405 126.965 43.666 126.965 44.191V51.3073C126.965 51.8322 127.391 52.2578 127.917 52.2578H135.041C135.566 52.2578 135.992 51.8322 135.992 51.3073V44.191C135.992 43.666 135.566 43.2405 135.041 43.2405Z" fill="#99B9FF"/>
<path d="M147.54 43.3567H140.416C139.891 43.3567 139.465 43.7823 139.465 44.3072V51.4235C139.465 51.9484 139.891 52.374 140.416 52.374H147.54C148.066 52.374 148.492 51.9484 148.492 51.4235V44.3072C148.492 43.7823 148.066 43.3567 147.54 43.3567Z" fill="#99B9FF"/>
<path d="M159.692 43.3567H152.568C152.043 43.3567 151.617 43.7823 151.617 44.3072V51.4235C151.617 51.9484 152.043 52.374 152.568 52.374H159.692C160.218 52.374 160.644 51.9484 160.644 51.4235V44.3072C160.644 43.7823 160.218 43.3567 159.692 43.3567Z" fill="#99B9FF"/>
<path d="M122.774 55.4939H115.651C115.125 55.4939 114.699 55.9195 114.699 56.4444V63.5607C114.699 64.0856 115.125 64.5112 115.651 64.5112H122.774C123.3 64.5112 123.726 64.0856 123.726 63.5607V56.4444C123.726 55.9195 123.3 55.4939 122.774 55.4939Z" fill="#99B9FF"/>
<path d="M135.041 55.4939H127.917C127.391 55.4939 126.965 55.9195 126.965 56.4444V63.5607C126.965 64.0856 127.391 64.5112 127.917 64.5112H135.041C135.566 64.5112 135.992 64.0856 135.992 63.5607V56.4444C135.992 55.9195 135.566 55.4939 135.041 55.4939Z" fill="#99B9FF"/>
<path d="M147.54 55.6099H140.416C139.891 55.6099 139.465 56.0354 139.465 56.5604V63.6766C139.465 64.2016 139.891 64.6272 140.416 64.6272H147.54C148.066 64.6272 148.492 64.2016 148.492 63.6766V56.5604C148.492 56.0354 148.066 55.6099 147.54 55.6099Z" fill="#99B9FF"/>
<path d="M159.692 55.6099H152.568C152.043 55.6099 151.617 56.0354 151.617 56.5604V63.6766C151.617 64.2016 152.043 64.6272 152.568 64.6272H159.692C160.218 64.6272 160.644 64.2016 160.644 63.6766V56.5604C160.644 56.0354 160.218 55.6099 159.692 55.6099Z" fill="#99B9FF"/>
<path d="M123.005 67.7493H115.881C115.355 67.7493 114.929 68.1748 114.929 68.6998V75.8161C114.929 76.341 115.355 76.7666 115.881 76.7666H123.005C123.53 76.7666 123.956 76.341 123.956 75.8161V68.6998C123.956 68.1748 123.53 67.7493 123.005 67.7493Z" fill="#99B9FF"/>
<path d="M135.273 67.7493H128.15C127.624 67.7493 127.198 68.1748 127.198 68.6998V75.8161C127.198 76.341 127.624 76.7666 128.15 76.7666H135.273C135.799 76.7666 136.225 76.341 136.225 75.8161V68.6998C136.225 68.1748 135.799 67.7493 135.273 67.7493Z" fill="#99B9FF"/>
<path d="M147.771 67.8655H140.647C140.121 67.8655 139.695 68.291 139.695 68.816V75.9323C139.695 76.4572 140.121 76.8828 140.647 76.8828H147.771C148.296 76.8828 148.722 76.4572 148.722 75.9323V68.816C148.722 68.291 148.296 67.8655 147.771 67.8655Z" fill="#99B9FF"/>
<path d="M159.923 67.8655H152.799C152.273 67.8655 151.847 68.291 151.847 68.816V75.9323C151.847 76.4572 152.273 76.8828 152.799 76.8828H159.923C160.448 76.8828 160.874 76.4572 160.874 75.9323V68.816C160.874 68.291 160.448 67.8655 159.923 67.8655Z" fill="#99B9FF"/>
<path d="M123.005 80.0024H115.881C115.355 80.0024 114.929 80.428 114.929 80.953V88.0692C114.929 88.5942 115.355 89.0198 115.881 89.0198H123.005C123.53 89.0198 123.956 88.5942 123.956 88.0692V80.953C123.956 80.428 123.53 80.0024 123.005 80.0024Z" fill="#99B9FF"/>
<path d="M135.271 80.0024H128.148C127.622 80.0024 127.196 80.428 127.196 80.953V88.0692C127.196 88.5942 127.622 89.0198 128.148 89.0198H135.271C135.797 89.0198 136.223 88.5942 136.223 88.0692V80.953C136.223 80.428 135.797 80.0024 135.271 80.0024Z" fill="#99B9FF"/>
<path d="M147.771 80.1187H140.647C140.121 80.1187 139.695 80.5442 139.695 81.0692V88.1854C139.695 88.7104 140.121 89.136 140.647 89.136H147.771C148.296 89.136 148.722 88.7104 148.722 88.1854V81.0692C148.722 80.5442 148.296 80.1187 147.771 80.1187Z" fill="#99B9FF"/>
<path d="M159.923 80.1187H152.799C152.273 80.1187 151.847 80.5442 151.847 81.0692V88.1854C151.847 88.7104 152.273 89.136 152.799 89.136H159.923C160.448 89.136 160.874 88.7104 160.874 88.1854V81.0692C160.874 80.5442 160.448 80.1187 159.923 80.1187Z" fill="#99B9FF"/>
<path d="M144.571 92.0488H132.806C132.475 92.0488 132.208 92.3165 132.208 92.6466V97.4436C132.208 97.7737 132.475 98.0414 132.806 98.0414H144.571C144.902 98.0414 145.17 97.7737 145.17 97.4436V92.6466C145.17 92.3165 144.902 92.0488 144.571 92.0488Z" fill="#5479F7"/>
<path d="M169.77 135.625H105.848C104.154 135.625 102.775 134.248 102.775 132.556V3.06914C102.775 1.3772 104.154 0 105.848 0H169.77C171.464 0 172.843 1.3772 172.843 3.06914V132.558C172.843 134.25 171.464 135.627 169.77 135.627V135.625ZM105.848 0.633683C104.503 0.633683 103.41 1.72573 103.41 3.06914V132.558C103.41 133.901 104.503 134.993 105.848 134.993H169.77C171.115 134.993 172.208 133.901 172.208 132.558V3.06914C172.208 1.72573 171.115 0.633683 169.77 0.633683H105.848Z" fill="black"/>
<path d="M132.757 107.772H146.075C147.145 107.772 148.016 108.641 148.016 109.712V135.87C148.016 136.328 147.644 136.698 147.187 136.698H130.801C130.402 136.698 130.078 136.375 130.078 135.976V110.453C130.078 108.974 131.279 107.775 132.759 107.775L132.757 107.772Z" fill="#99B9FF"/>
<path d="M147.185 137.015H130.799C130.224 137.015 129.759 136.548 129.759 135.976V110.453C129.759 108.801 131.104 107.458 132.757 107.458H146.075C147.32 107.458 148.333 108.47 148.333 109.714V135.872C148.333 136.504 147.819 137.017 147.187 137.017L147.185 137.015ZM132.757 108.089C131.455 108.089 130.393 109.148 130.393 110.451V135.973C130.393 136.197 130.575 136.379 130.799 136.379H147.185C147.468 136.379 147.696 136.149 147.696 135.868V109.709C147.696 108.816 146.969 108.087 146.072 108.087H132.755L132.757 108.089Z" fill="black"/>
<path d="M141.459 113.005H136.236C135.575 113.005 135.039 113.54 135.039 114.2V119.418C135.039 120.078 135.575 120.613 136.236 120.613H141.459C142.12 120.613 142.655 120.078 142.655 119.418V114.2C142.655 113.54 142.12 113.005 141.459 113.005Z" fill="#5479F7"/>
<path d="M141.456 120.93H136.236C135.4 120.93 134.722 120.252 134.722 119.418V114.202C134.722 113.368 135.4 112.69 136.236 112.69H141.456C142.292 112.69 142.971 113.368 142.971 114.202V119.418C142.971 120.252 142.292 120.93 141.456 120.93ZM136.236 113.322C135.749 113.322 135.356 113.717 135.356 114.2V119.415C135.356 119.901 135.751 120.294 136.236 120.294H141.456C141.943 120.294 142.336 119.899 142.336 119.415V114.2C142.336 113.714 141.941 113.322 141.456 113.322H136.236Z" fill="white"/>
<path d="M161.325 8.17871H114.735C113.859 8.17871 113.149 8.88798 113.149 9.76292V37.1127C113.149 37.9876 113.859 38.6969 114.735 38.6969H161.325C162.2 38.6969 162.91 37.9876 162.91 37.1127V9.76292C162.91 8.88798 162.2 8.17871 161.325 8.17871Z" fill="#99B9FF"/>
<path d="M161.325 39.0137H114.735C113.686 39.0137 112.832 38.1603 112.832 37.1126V9.76287C112.832 8.71518 113.686 7.86182 114.735 7.86182H161.325C162.373 7.86182 163.228 8.71518 163.228 9.76287V37.1126C163.228 38.1603 162.373 39.0137 161.325 39.0137ZM114.737 8.4955C114.037 8.4955 113.468 9.0637 113.468 9.76287V37.1126C113.468 37.8118 114.037 38.38 114.737 38.38H161.327C162.027 38.38 162.595 37.8118 162.595 37.1126V9.76287C162.595 9.0637 162.027 8.4955 161.327 8.4955H114.737Z" fill="white"/>
<path d="M127.733 9.27271L115.257 37.366L122.764 37.5497L134.288 9.27271H127.733Z" fill="#CADDFF"/>
<path d="M126.676 37.4718L137.883 9.48413H139.997L128.579 37.5774L126.676 37.4718Z" fill="#CADDFF"/>
<path d="M146.764 37.366L157.759 9.27274L159.849 9.21571C160.787 9.19036 161.561 9.94444 161.557 10.8823L161.462 36.105C161.46 36.745 160.942 37.2646 160.299 37.2689L146.76 37.366H146.764Z" fill="#CADDFF"/>
<path d="M124.671 26.8047C125.897 26.8047 126.891 25.8117 126.891 24.5868C126.891 23.3619 125.897 22.3689 124.671 22.3689C123.445 22.3689 122.451 23.3619 122.451 24.5868C122.451 25.8117 123.445 26.8047 124.671 26.8047Z" fill="black"/>
<path d="M131.649 26.699C132.875 26.699 133.869 25.706 133.869 24.4811C133.869 23.2562 132.875 22.2632 131.649 22.2632C130.423 22.2632 129.429 23.2562 129.429 24.4811C129.429 25.706 130.423 26.699 131.649 26.699Z" fill="black"/>
<path d="M138.733 26.5935C139.959 26.5935 140.953 25.6005 140.953 24.3756C140.953 23.1507 139.959 22.1577 138.733 22.1577C137.507 22.1577 136.513 23.1507 136.513 24.3756C136.513 25.6005 137.507 26.5935 138.733 26.5935Z" fill="black"/>
<path d="M145.711 26.4878C146.937 26.4878 147.931 25.4948 147.931 24.2699C147.931 23.045 146.937 22.052 145.711 22.052C144.485 22.052 143.491 23.045 143.491 24.2699C143.491 25.4948 144.485 26.4878 145.711 26.4878Z" fill="black"/>
<path d="M152.583 26.2766C153.809 26.2766 154.803 25.2836 154.803 24.0587C154.803 22.8338 153.809 21.8408 152.583 21.8408C151.357 21.8408 150.363 22.8338 150.363 24.0587C150.363 25.2836 151.357 26.2766 152.583 26.2766Z" fill="black"/>
<path d="M113.454 164.388C113.295 164.388 113.16 164.27 113.139 164.111C113.117 163.938 113.24 163.78 113.413 163.759C131.837 161.458 151.619 146.347 151.818 146.195C151.957 146.087 152.156 146.115 152.262 146.252C152.37 146.391 152.342 146.59 152.205 146.696C152.006 146.85 132.087 162.065 113.492 164.386C113.479 164.386 113.466 164.388 113.452 164.388H113.454Z" fill="black"/>
<path d="M111.862 167.683C111.692 167.683 111.553 167.55 111.544 167.381C111.536 167.206 111.671 167.058 111.847 167.05C126.24 166.386 144.937 154.741 145.123 154.623C145.271 154.53 145.468 154.574 145.561 154.722C145.654 154.87 145.61 155.067 145.462 155.16C145.273 155.278 126.435 167.012 111.876 167.681C111.872 167.681 111.866 167.681 111.862 167.681V167.683Z" fill="black"/>
<path d="M110.235 166.437C109.827 166.437 109.419 166.285 109.106 165.978C108.47 165.357 108.459 164.333 109.081 163.697C109.705 163.061 110.728 163.051 111.365 163.672C112.001 164.295 112.012 165.317 111.39 165.953C111.075 166.276 110.654 166.437 110.235 166.437ZM109.55 165.524C109.937 165.902 110.559 165.894 110.937 165.51C111.316 165.123 111.31 164.502 110.923 164.124C110.536 163.746 109.914 163.754 109.535 164.139C109.157 164.525 109.163 165.146 109.55 165.524Z" fill="black"/>
<path d="M155.818 145.842C155.818 145.842 155.806 145.842 155.799 145.842C155.685 145.836 155.584 145.768 155.533 145.667L153.695 141.943C153.649 141.85 153.653 141.738 153.704 141.647C153.755 141.556 153.848 141.495 153.951 141.487L158.479 141.083C158.599 141.073 158.715 141.132 158.779 141.235C158.842 141.339 158.84 141.47 158.773 141.571L156.083 145.699C156.024 145.789 155.924 145.842 155.816 145.842H155.818ZM154.469 142.076L155.857 144.885L157.887 141.77L154.472 142.074L154.469 142.076Z" fill="black"/>
<path d="M181.132 38.8194C181.051 38.8194 180.969 38.7877 180.908 38.7265C180.783 38.6018 180.783 38.4012 180.908 38.2787L181.646 37.5415C181.77 37.4168 181.971 37.4168 182.094 37.5415C182.219 37.6661 182.219 37.8668 182.094 37.9893L181.356 38.7265C181.294 38.7877 181.212 38.8194 181.132 38.8194Z" fill="black"/>
<path d="M183.919 36.0355C183.838 36.0355 183.756 36.0038 183.694 35.9425C183.57 35.8179 183.57 35.6172 183.694 35.4947L184.432 34.7575C184.557 34.6329 184.758 34.6329 184.881 34.7575C185.005 34.8822 185.005 35.0828 184.881 35.2053L184.143 35.9425C184.081 36.0038 183.999 36.0355 183.919 36.0355Z" fill="black"/>
<path d="M184.657 38.8194C184.576 38.8194 184.494 38.7877 184.432 38.7265L183.694 37.9893C183.57 37.8646 183.57 37.664 183.694 37.5415C183.819 37.4168 184.02 37.4168 184.143 37.5415L184.881 38.2787C185.005 38.4033 185.005 38.6039 184.881 38.7265C184.819 38.7877 184.737 38.8194 184.657 38.8194Z" fill="black"/>
<path d="M181.87 36.0355C181.789 36.0355 181.707 36.0038 181.646 35.9425L180.908 35.2053C180.783 35.0807 180.783 34.88 180.908 34.7575C181.032 34.6329 181.233 34.6329 181.356 34.7575L182.094 35.4947C182.219 35.6193 182.219 35.82 182.094 35.9425C182.032 36.0038 181.95 36.0355 181.87 36.0355Z" fill="black"/>
<path d="M29.0538 69.9544C29.0094 69.9544 28.965 69.946 28.9227 69.9248C28.7642 69.853 28.6923 69.665 28.7663 69.5045L29.1976 68.5561C29.2695 68.3977 29.4577 68.3258 29.6184 68.3998C29.777 68.4716 29.8489 68.6596 29.7749 68.8201L29.3435 69.7685C29.2907 69.8847 29.1744 69.9544 29.0538 69.9544Z" fill="black"/>
<path d="M30.6884 66.3719C30.644 66.3719 30.5996 66.3634 30.5573 66.3423C30.3987 66.2705 30.3268 66.0825 30.4008 65.922L30.8322 64.9736C30.904 64.8152 31.0922 64.7433 31.2529 64.8173C31.4115 64.8891 31.4834 65.0771 31.4094 65.2376L30.9781 66.186C30.9252 66.3022 30.8089 66.3719 30.6884 66.3719Z" fill="black"/>
<path d="M32.3546 68.7208C32.3102 68.7208 32.2658 68.7123 32.2235 68.6912L31.2741 68.2582C31.1155 68.1863 31.0436 67.9984 31.1176 67.8378C31.1895 67.6794 31.3777 67.6076 31.5384 67.6815L32.4878 68.1145C32.6464 68.1863 32.7183 68.3743 32.6443 68.5349C32.5914 68.651 32.4751 68.7208 32.3546 68.7208Z" fill="black"/>
<path d="M28.7684 67.0879C28.724 67.0879 28.6796 67.0795 28.6373 67.0584L27.6879 66.6254C27.5293 66.5535 27.4574 66.3655 27.5314 66.205C27.6033 66.0466 27.7915 65.9748 27.9522 66.0487L28.9016 66.4817C29.0602 66.5535 29.1321 66.7415 29.0581 66.9021C29.0052 67.0182 28.8889 67.0879 28.7684 67.0879Z" fill="black"/>
<path d="M38.5525 81.5298C37.656 81.5298 36.9243 80.801 36.9243 79.9033C36.9243 79.0056 37.6538 78.2769 38.5525 78.2769C39.4512 78.2769 40.1807 79.0056 40.1807 79.9033C40.1807 80.801 39.4512 81.5298 38.5525 81.5298ZM38.5525 78.9127C38.0049 78.9127 37.5587 79.3583 37.5587 79.9054C37.5587 80.4525 38.0049 80.8982 38.5525 80.8982C39.1002 80.8982 39.5464 80.4525 39.5464 79.9054C39.5464 79.3583 39.1002 78.9127 38.5525 78.9127Z" fill="black"/>
<path d="M130.89 147.393L130.482 145.901L128.795 145.977C128.638 145.65 128.456 145.337 128.253 145.046L129.148 143.616L128.048 142.528L126.625 143.438C126.329 143.236 126.016 143.056 125.69 142.906L125.75 141.218L124.253 140.825L123.477 142.323C123.121 142.296 122.762 142.298 122.398 142.331L121.605 140.84L120.114 141.248L120.191 142.936C119.863 143.092 119.55 143.274 119.26 143.478L117.829 142.585L116.742 143.683L117.653 145.107C117.45 145.403 117.273 145.715 117.12 146.041L115.431 145.982L115.04 147.477L116.537 148.252C116.509 148.607 116.511 148.968 116.545 149.329L115.054 150.124L115.462 151.615L117.15 151.539C117.306 151.866 117.488 152.179 117.691 152.47L116.797 153.9L117.896 154.988L119.319 154.078C119.615 154.281 119.928 154.46 120.254 154.61L120.195 156.298L121.692 156.691L122.468 155.193C122.823 155.221 123.183 155.218 123.546 155.185L124.339 156.676L125.83 156.268L125.754 154.581C126.082 154.424 126.395 154.243 126.684 154.038L128.116 154.931L129.203 153.833L128.291 152.409C128.494 152.113 128.672 151.801 128.824 151.476L130.514 151.535L130.905 150.039L129.408 149.264C129.435 148.909 129.433 148.55 129.399 148.187L130.89 147.393ZM124.02 152.599C121.899 153.18 119.708 151.932 119.129 149.811C118.548 147.69 119.797 145.502 121.918 144.921C124.039 144.34 126.23 145.589 126.809 147.709C127.391 149.83 126.141 152.018 124.02 152.599Z" fill="white"/>
<path d="M82.0018 57.9378C82.0018 57.9378 82.0145 57.9378 82.0208 57.9378C82.1858 57.9272 82.3126 57.7857 82.3021 57.6188L81.285 41.4155C81.1158 38.7182 78.8638 36.6038 76.1572 36.6038H49.3913C49.2243 36.6038 49.0911 36.7389 49.0911 36.9037C49.0911 37.0706 49.2264 37.2036 49.3913 37.2036H76.1572C78.5466 37.2036 80.5343 39.0688 80.6844 41.4514L81.7015 57.6547C81.7121 57.8131 81.8432 57.9356 82.0018 57.9356V57.9378Z" fill="white"/>
<path d="M83.1585 76.3885C83.1585 76.3885 83.1712 76.3885 83.1775 76.3885C83.3424 76.3779 83.4693 76.2364 83.4588 76.0695L82.7271 64.4161C82.7165 64.2513 82.5706 64.1246 82.4078 64.1351C82.2429 64.1457 82.116 64.2872 82.1266 64.4541L82.8582 76.1075C82.8688 76.2659 82.9999 76.3885 83.1585 76.3885Z" fill="white"/>
<path d="M79.6926 116.648H91.5044C93.5386 116.648 95.429 115.833 96.8246 114.354C98.2202 112.876 98.9222 110.943 98.8017 108.913L98.5226 104.232C98.512 104.068 98.3682 103.941 98.2033 103.949C98.0384 103.96 97.9115 104.101 97.92 104.268L98.1991 108.949C98.3111 110.812 97.6662 112.584 96.3848 113.943C95.1034 115.301 93.3716 116.049 91.5044 116.049H79.6926C79.5256 116.049 79.3923 116.184 79.3923 116.348C79.3923 116.515 79.5277 116.648 79.6926 116.648Z" fill="#5479F7"/>
<path d="M97.3239 89.5374C97.3239 89.5374 97.3366 89.5374 97.3429 89.5374C97.5078 89.5268 97.6347 89.3853 97.6263 89.2184L94.4946 36.7305C94.2895 33.2875 91.4243 30.5901 87.9713 30.5901H62.2373C62.0702 30.5901 61.937 30.7253 61.937 30.89C61.937 31.0569 62.0723 31.19 62.2373 31.19H87.9713C91.105 31.19 93.708 33.6381 93.8941 36.7643L97.0257 89.2522C97.0363 89.4128 97.1674 89.5353 97.326 89.5353L97.3239 89.5374Z" fill="#5479F7"/>
<path d="M65.2272 70.5206C65.2272 70.5206 65.242 70.5206 65.2484 70.5206C65.4133 70.5079 65.5381 70.3643 65.5275 70.1995L64.4871 55.8234C64.3264 53.5907 62.4424 51.8396 60.201 51.8396H53.0009C52.8339 51.8396 52.7007 51.9748 52.7007 52.1395C52.7007 52.3064 52.836 52.4395 53.0009 52.4395H60.201C62.1294 52.4395 63.7471 53.9434 63.8866 55.8635L64.927 70.2396C64.9375 70.3981 65.0708 70.5185 65.2272 70.5185V70.5206Z" fill="#5479F7"/>
<path d="M74.2711 73.0743C74.2711 73.0743 74.2838 73.0743 74.2902 73.0743C74.4551 73.0637 74.582 72.9222 74.5714 72.7553L73.0891 48.5951C72.9453 46.2547 70.9957 44.4233 68.6486 44.4233H56.6147C56.4477 44.4233 56.3145 44.5585 56.3145 44.7233C56.3145 44.8902 56.4498 45.0232 56.6147 45.0232H68.6486C70.6764 45.0232 72.3638 46.6074 72.4886 48.631L73.9709 72.7912C73.9815 72.9517 74.1126 73.0743 74.2711 73.0743Z" fill="#5479F7"/>
<path d="M24.9916 97.2534H29.1213C29.2884 97.2534 29.4216 97.1182 29.4216 96.9535C29.4216 96.7887 29.2863 96.6535 29.1213 96.6535H24.9916C23.6256 96.6535 22.3929 95.7917 21.9255 94.5117L17.6542 82.8329C17.5971 82.6766 17.4237 82.5963 17.2672 82.6534C17.1107 82.7104 17.0304 82.8836 17.0875 83.0399L21.3588 94.7187C21.9129 96.2353 23.374 97.2555 24.9916 97.2555V97.2534Z" fill="#5479F7"/>
<path d="M14.3724 111.176H33.5365C33.7035 111.176 33.8367 111.04 33.8367 110.876C33.8367 110.709 33.7014 110.576 33.5365 110.576H14.3724C12.3699 110.576 10.5726 109.386 9.79229 107.545L4.09359 94.0957C4.02804 93.9436 3.85254 93.8718 3.69818 93.9351C3.54593 94.0006 3.47403 94.1759 3.53747 94.3301L9.23616 107.779C10.1116 109.843 12.1267 111.178 14.3703 111.178L14.3724 111.176Z" fill="#5479F7"/>
<path d="M8.78749 83.9611C9.75133 83.7339 10.3483 82.7692 10.1208 81.8064C9.89328 80.8436 8.92753 80.2473 7.96369 80.4745C6.99985 80.7018 6.40292 81.6665 6.63041 82.6293C6.85789 83.5921 7.82365 84.1884 8.78749 83.9611Z" fill="white"/>
<path d="M18.3325 82.2258C18.7115 81.3119 18.277 80.2641 17.3621 79.8855C16.4471 79.5069 15.3982 79.9409 15.0192 80.8549C14.6402 81.7689 15.0747 82.8167 15.9896 83.1952C16.9046 83.5738 17.9535 83.1398 18.3325 82.2258Z" fill="#5479F7"/>
<path d="M3.57602 94.6075C4.55355 94.449 5.21736 93.529 5.05868 92.5525C4.90001 91.576 3.97894 90.9129 3.00141 91.0714C2.02389 91.2299 1.36008 92.15 1.51875 93.1265C1.67743 94.1029 2.5985 94.766 3.57602 94.6075Z" fill="#5479F7"/>
<path d="M49.3913 38.6969C50.3816 38.6969 51.1844 37.895 51.1844 36.9057C51.1844 35.9165 50.3816 35.1145 49.3913 35.1145C48.401 35.1145 47.5981 35.9165 47.5981 36.9057C47.5981 37.895 48.401 38.6969 49.3913 38.6969Z" fill="white"/>
<path d="M58.2153 45.4211C58.5943 44.5072 58.1598 43.4594 57.2449 43.0808C56.3299 42.7022 55.281 43.1363 54.902 44.0502C54.523 44.9642 54.9575 46.012 55.8725 46.3905C56.7874 46.7691 57.8363 46.3351 58.2153 45.4211Z" fill="#5479F7"/>
<path d="M53.9459 53.4746C54.6462 52.7751 54.6462 51.6409 53.9459 50.9414C53.2456 50.2419 52.1103 50.2419 51.41 50.9414C50.7098 51.6409 50.7098 52.7751 51.41 53.4746C52.1103 54.1741 53.2456 54.1741 53.9459 53.4746Z" fill="#5479F7"/>
<path d="M63.3824 32.1701C64.0827 31.4706 64.0827 30.3365 63.3824 29.637C62.6822 28.9375 61.5468 28.9375 60.8466 29.637C60.1463 30.3365 60.1463 31.4706 60.8465 32.1701C61.5468 32.8697 62.6822 32.8696 63.3824 32.1701Z" fill="#5479F7"/>
<path d="M21.5894 34.9983L21.4266 32.4383C21.3378 31.0526 22.4416 29.8782 23.8308 29.8782H40.9459C42.2168 29.8782 43.2698 30.8646 43.3502 32.132L45.4309 68.3322C45.5197 69.7199 44.418 70.8922 43.0266 70.8922L4.45738 71.7013C3.18654 71.7013 2.13349 70.7148 2.05314 69.4475L0.30653 37.5584C0.21772 36.1706 1.3194 34.9983 2.71076 34.9983H21.5894Z" fill="#CADDFF"/>
<path d="M1.75287 69.4642L0.00626058 37.5773C-0.0423739 36.8232 0.217715 36.1029 0.733663 35.5516C1.25173 35.0003 1.95375 34.6962 2.71076 34.6962H21.268L21.1263 32.4572C21.0777 31.7031 21.3378 30.9828 21.8558 30.4336C22.3739 29.8823 23.0759 29.5781 23.8329 29.5781H40.948C42.3732 29.5781 43.5616 30.6913 43.6525 32.115L45.7332 68.3131C45.7819 69.0671 45.5239 69.7874 45.0058 70.3387C44.4878 70.89 43.7857 71.1942 43.0351 71.1942L4.45949 72.0032C3.03217 72.0032 1.84591 70.89 1.75287 69.4642ZM23.8308 30.1801C23.243 30.1801 22.6953 30.4167 22.2935 30.8455C21.8897 31.2743 21.6888 31.834 21.7268 32.4213L21.8897 34.9813C21.896 35.0637 21.8664 35.1461 21.8093 35.2052C21.7522 35.2665 21.6719 35.3003 21.5894 35.3003H2.71076C2.12292 35.3003 1.57525 35.5369 1.17349 35.9657C0.76961 36.3944 0.568729 36.9542 0.60679 37.5435L2.3534 69.4305C2.42318 70.5373 3.34935 71.4033 4.45103 71.4033L43.0266 70.5943C43.6145 70.5943 44.1621 70.3577 44.5639 69.9289C44.9678 69.5002 45.1687 68.9404 45.1306 68.3511L43.0499 32.153C42.9801 31.0483 42.0539 30.1801 40.9459 30.1801H23.8308Z" fill="black"/>
<path d="M7.47264 69.3797L5.39404 43.1853L9.15581 39.1086H36.9642C38.3788 39.1086 39.5524 40.2028 39.6517 41.6117L41.5992 69.3776H7.47264V69.3797Z" fill="white"/>
<path d="M5.08325 43.0797L9.02264 38.8108H36.9642C38.529 38.8108 39.8421 40.0338 39.952 41.5927L41.9228 69.6796H7.19356L5.08325 43.0776V43.0797ZM39.3515 41.6349C39.2648 40.3887 38.216 39.4107 36.9642 39.4107H9.28696L5.70493 43.293L7.7518 69.0776H41.2779L39.3536 41.6328L39.3515 41.6349Z" fill="black"/>
<path d="M5.39419 43.4873C5.39419 43.4873 5.40054 43.4873 5.40265 43.4873L9.65077 43.3606C9.73324 43.3585 9.81147 43.3226 9.86645 43.2592C9.92143 43.198 9.94892 43.1156 9.94046 43.0332L9.62328 39.36C9.60848 39.1952 9.46257 39.0748 9.29764 39.0854C9.13271 39.1001 9.01006 39.2459 9.02275 39.4107L9.31244 42.7671L5.38151 42.8853C5.21446 42.8896 5.08547 43.029 5.0897 43.1959C5.09393 43.3585 5.22926 43.4873 5.38997 43.4873H5.39419Z" fill="black"/>
<path d="M13.0698 48.4322H34.7417C34.9088 48.4322 35.042 48.297 35.042 48.1322C35.042 47.9675 34.9067 47.8323 34.7417 47.8323H13.0698C12.9027 47.8323 12.7695 47.9675 12.7695 48.1322C12.7695 48.2991 12.9049 48.4322 13.0698 48.4322Z" fill="#99B9FF"/>
<path d="M12.8691 45.8255H34.5411C34.7081 45.8255 34.8413 45.6903 34.8413 45.5255C34.8413 45.3587 34.706 45.2256 34.5411 45.2256H12.8691C12.7021 45.2256 12.5688 45.3608 12.5688 45.5255C12.5688 45.6903 12.7042 45.8255 12.8691 45.8255Z" fill="#99B9FF"/>
<path d="M12.4673 43.219H22.7016C22.8687 43.219 23.0019 43.0838 23.0019 42.9191C23.0019 42.7522 22.8666 42.6191 22.7016 42.6191H12.4673C12.3002 42.6191 12.167 42.7543 12.167 42.9191C12.167 43.0838 12.3023 43.219 12.4673 43.219Z" fill="#99B9FF"/>
<path d="M28.1191 43.219H34.1392C34.3063 43.219 34.4395 43.0838 34.4395 42.9191C34.4395 42.7522 34.3041 42.6191 34.1392 42.6191H28.1191C27.9521 42.6191 27.8188 42.7543 27.8188 42.9191C27.8188 43.086 27.9542 43.219 28.1191 43.219Z" fill="#99B9FF"/>
<path d="M4.53561 71.8131H43.1577C44.3546 71.8131 45.3695 71.1203 45.5429 70.1867L48.6132 53.5483C48.8247 52.4013 47.6976 51.3748 46.228 51.3748H7.60804C6.41121 51.3748 5.39623 52.0676 5.22284 53.0012L2.15252 69.6396C1.94107 70.7866 3.06812 71.8131 4.53772 71.8131H4.53561Z" fill="#CADDFF"/>
<path d="M4.53573 72.1153H31.807C31.974 72.1153 32.1072 71.9801 32.1072 71.8153C32.1072 71.6484 31.9719 71.5154 31.807 71.5154H4.53573C3.81044 71.5154 3.14225 71.2344 2.75106 70.7655C2.56286 70.5416 2.35987 70.172 2.44656 69.6967L5.51688 53.0583C5.66278 52.2725 6.55935 51.679 7.60605 51.679H46.2282C46.9534 51.679 47.6216 51.9599 48.0128 52.4288C48.201 52.6527 48.4061 53.0224 48.3173 53.4977L46.8773 61.2983C46.8477 61.4609 46.9556 61.6194 47.1184 61.6489C47.2812 61.6785 47.4377 61.5708 47.4694 61.4081L48.9094 53.6075C49.0109 53.0583 48.8565 52.5028 48.4759 52.0465C47.9727 51.4403 47.1311 51.0791 46.2282 51.0791H7.60816C6.25485 51.0791 5.1278 51.867 4.92692 52.9527L1.8566 69.5911C1.75511 70.1403 1.90947 70.6958 2.29009 71.1521C2.79546 71.7583 3.63493 72.1195 4.53784 72.1195L4.53573 72.1153Z" fill="black"/>
<path d="M144.233 68.723L131.835 62.5213C121.747 57.4751 112.428 51.1362 104.105 43.6566L103.703 39.8165C103.703 39.8165 99.3748 39.8629 98.4507 39.8101C97.2729 39.7425 96.0465 40.1544 95.0886 41.031C85.0445 50.2406 73.7677 58.018 61.6196 64.1098L53.024 68.4188C51.0279 69.42 50.2095 71.1859 50.6451 73.7227L58.8855 119.325C62.8862 132.083 81.0036 149.154 91.2444 158.041C93.1073 159.656 95.4523 160.446 97.8333 160.432C98.8884 160.425 103.255 160.563 103.255 160.563C103.255 160.563 104.287 158.738 105.583 157.506C115.82 147.779 133.878 129.058 138.179 114.314L146.267 73.5537C146.836 71.6041 145.99 69.6017 144.228 68.7209L144.233 68.723Z" fill="#99B9FF"/>
<path d="M120.444 142.439C120.37 142.439 120.296 142.414 120.235 142.361C120.104 142.245 120.089 142.046 120.205 141.913C129.75 131.012 135.694 121.701 137.874 114.24L145.96 73.4925C145.96 73.4925 145.965 73.4735 145.967 73.4651C146.495 71.6549 145.723 69.8214 144.091 69.004L131.693 62.8023C121.586 57.7476 112.231 51.3833 103.894 43.889C103.817 43.8193 103.777 43.7158 103.792 43.6144L104.173 40.5896C103.022 40.4924 99.2078 40.1693 98.436 40.1249C97.3047 40.0615 96.165 40.4756 95.3065 41.2634C85.2328 50.5004 73.9475 58.282 61.7656 64.3907L53.17 68.6998C51.2732 69.6503 50.5522 71.2747 50.9624 73.6679L59.2006 119.249C60.0888 122.073 61.7466 125.298 64.1254 128.838C64.2227 128.984 64.1846 129.181 64.0387 129.278C63.8928 129.375 63.6962 129.337 63.5989 129.191C61.1799 125.592 59.4946 122.305 58.5895 119.418C58.5853 119.405 58.5832 119.392 58.5811 119.38L50.3407 73.7777C49.8819 71.1099 50.7404 69.211 52.8887 68.1337L61.4844 63.8247C73.6155 57.7413 84.8522 49.9935 94.8814 40.7966C95.8647 39.8947 97.1757 39.4194 98.4762 39.4933C99.3917 39.5461 104.35 39.9686 104.56 39.9876C104.646 39.994 104.725 40.0362 104.78 40.1038C104.835 40.1714 104.858 40.258 104.847 40.3425L104.446 43.532C112.711 50.9398 121.975 57.2344 131.981 62.2383L144.379 68.44C146.286 69.3926 147.191 71.526 146.584 73.6298L138.498 114.378C138.498 114.378 138.494 114.397 138.492 114.405C136.288 121.957 130.298 131.352 120.687 142.332C120.624 142.403 120.537 142.439 120.448 142.439H120.444Z" fill="black"/>
<path d="M149.05 68.968L136.747 62.8149C126.737 57.8088 117.49 51.5184 109.233 44.0959L106.133 41.3098C104.52 39.8608 101.98 39.9389 100.288 41.4915C90.3225 50.6292 79.1324 58.3453 67.0795 64.3907L58.5516 68.668C56.5702 69.6608 55.5595 71.9146 56.1917 73.9297L64.3687 119.177C68.3377 131.836 86.51 148.935 96.6704 157.751C100.606 161.165 106.706 160.86 110.705 157.063C120.861 147.412 138.779 128.836 143.047 114.207L151.071 73.7628C151.636 71.828 150.796 69.8424 149.05 68.968Z" fill="white"/>
<path d="M140.959 74.3417L130.774 69.2469C122.485 65.1026 114.83 59.8937 107.994 53.7491L105.427 51.4425C104.092 50.2427 101.988 50.3082 100.586 51.5925C92.3355 59.1587 83.0696 65.5462 73.0911 70.5523L66.0306 74.0924C64.3897 74.9141 63.5545 76.7814 64.0768 78.4501L70.8475 115.913C74.1335 126.395 89.1785 140.551 97.5923 147.851C100.849 150.677 105.902 150.426 109.212 147.281C117.621 139.29 132.457 123.908 135.988 111.797L142.632 78.3107C143.099 76.7096 142.406 75.0641 140.957 74.3396L140.959 74.3417Z" fill="#99B9FF"/>
<path d="M122.948 144.913C122.872 144.913 122.796 144.885 122.734 144.831C122.605 144.712 122.595 144.512 122.713 144.383C133.647 132.368 140.384 122.191 142.74 114.131L150.763 73.7017C150.763 73.7017 150.767 73.6827 150.769 73.6743C151.293 71.8788 150.528 70.0602 148.908 69.2512L136.606 63.0981C126.576 58.0814 117.296 51.7678 109.021 44.3305L105.922 41.5444C104.444 40.2158 102.063 40.294 100.502 41.724C90.5066 50.8891 79.3101 58.6095 67.2212 64.6717L58.6933 68.9491C56.8557 69.8701 55.9105 71.9718 56.4942 73.8327C56.4984 73.8454 56.5005 73.858 56.5026 73.8707L64.6753 119.099C65.2209 120.835 66.0688 122.74 67.1937 124.76C67.2783 124.912 67.2233 125.106 67.0711 125.191C66.9188 125.275 66.7243 125.22 66.6397 125.068C65.4894 123.002 64.6224 121.053 64.0642 119.27C64.06 119.257 64.0579 119.245 64.0558 119.232L55.883 74.0038C55.2191 71.8535 56.3017 69.4392 58.4099 68.383L66.9379 64.1057C78.9738 58.0709 90.1217 50.3822 100.075 41.2572C101.902 39.5821 104.598 39.5019 106.347 41.0734L109.447 43.8595C117.678 51.2567 126.911 57.5386 136.891 62.5299L149.194 68.683C151.086 69.6293 151.985 71.7479 151.382 73.8369L143.36 114.268C143.36 114.268 143.355 114.287 143.353 114.295C140.974 122.451 134.189 132.717 123.183 144.809C123.119 144.879 123.035 144.913 122.948 144.913Z" fill="black"/>
<path d="M95.9893 86.5358L95.9767 74.5022C95.9999 70.6113 99.0406 67.2 102.94 66.7269C107.237 66.2072 110.865 69.4348 110.84 73.7227L110.821 86.4936C110.821 86.4936 115.466 86.9709 115.464 85.7733L115.344 73.6551C115.388 66.767 109.757 61.5391 102.625 62.3671V62.3735C96.7337 63.0557 91.4262 68.6216 91.386 74.9119L91.441 87.0618L95.9893 86.5358Z" fill="white"/>
<path d="M91.441 87.3808C91.3649 87.3808 91.2888 87.3533 91.2296 87.3005C91.1619 87.2414 91.1238 87.1548 91.1238 87.064L91.0688 74.9142C91.109 68.6829 96.3489 62.815 102.528 62.0652C102.547 62.0588 102.568 62.0546 102.587 62.0525C106.091 61.6469 109.387 62.646 111.865 64.8639C114.335 67.0755 115.682 70.1974 115.659 73.6573L115.779 85.7691C115.779 85.993 115.686 86.1937 115.509 86.3542C114.621 87.1569 111.419 86.8718 110.787 86.8063C110.624 86.7894 110.501 86.6542 110.501 86.4915L110.521 73.7207C110.533 71.7415 109.747 69.9482 108.309 68.666C106.86 67.3754 104.968 66.7988 102.976 67.0396C99.25 67.4916 96.3129 70.7678 96.2918 74.5001L96.3045 86.5317C96.3045 86.6922 96.1839 86.8274 96.0232 86.8464L91.4748 87.3724C91.4622 87.3724 91.4495 87.3724 91.4389 87.3724L91.441 87.3808ZM102.72 62.6756C102.701 62.682 102.682 62.6862 102.661 62.6883C96.7591 63.3727 91.7413 68.9702 91.7032 74.9142L91.7561 86.707L95.6722 86.2529L95.6595 74.5023C95.6828 70.4551 98.8631 66.9023 102.902 66.4122C105.046 66.1524 107.171 66.803 108.734 68.195C110.288 69.5785 111.17 71.5937 111.157 73.7249L111.138 86.2043C112.517 86.3204 114.593 86.3289 115.086 85.8853C115.147 85.8304 115.147 85.7945 115.147 85.7734L115.027 73.6595C115.048 70.3791 113.775 67.424 111.442 65.3371C109.114 63.2523 106.019 62.3081 102.72 62.6756Z" fill="black"/>
<path d="M98.7848 118.262L103.887 118.463C110.977 118.288 117.725 109.91 117.63 100.065L117.475 84.3137L87.3959 84.075C84.7252 84.0644 82.3506 86.4217 82.3802 89.06L82.5324 102.363C82.6212 111.313 89.7261 118.264 98.7869 118.264L98.7848 118.262Z" fill="#5479F7"/>
<path d="M103.729 118.015C113.697 118.015 122.072 109.661 121.973 99.8158L121.823 84.5461H90.0052C88.5419 84.5461 87.3113 85.7734 87.3261 87.2182L87.4741 102.116C87.5629 111.066 94.6677 118.017 103.729 118.017V118.015Z" fill="white"/>
<path d="M103.729 118.332C94.5262 118.332 87.2479 111.209 87.157 102.118L87.009 87.1421C87.0005 86.3838 87.3008 85.6593 87.8527 85.1037C88.4046 84.5482 89.1594 84.2292 89.927 84.2292H119.332C120.905 84.2292 122.148 85.448 122.165 87.0048L122.186 89.0917C122.186 89.267 122.047 89.4107 121.871 89.4107H121.867C121.694 89.4107 121.552 89.2712 121.55 89.0959L121.529 87.009C121.516 85.805 120.552 84.8608 119.33 84.8608H89.9249C89.3265 84.8608 88.7344 85.1122 88.3009 85.5473C87.8696 85.9824 87.6349 86.5464 87.6412 87.1336L87.7892 102.11C87.8759 110.85 94.8751 117.696 103.727 117.696C112.075 117.696 119.634 111.541 121.311 103.377C121.347 103.206 121.514 103.096 121.685 103.13C121.857 103.166 121.967 103.333 121.933 103.504C121.097 107.572 118.818 111.315 115.515 114.04C112.164 116.805 107.979 118.328 103.729 118.328V118.332Z" fill="black"/>
<path d="M104.689 108.356C105.501 108.356 106.184 107.678 106.179 106.875L106.108 95.004C106.103 94.271 105.522 93.7007 104.78 93.7007C103.968 93.7007 103.285 94.3787 103.289 95.1814L103.361 107.052C103.365 107.785 103.946 108.356 104.689 108.356Z" fill="black"/>
<path d="M108.118 99.936C110.371 98.0613 110.763 94.8209 108.993 92.6982C107.223 90.5755 103.962 90.3745 101.709 92.2492C99.4553 94.1238 99.0634 97.3643 100.833 99.487C102.603 101.61 105.864 101.811 108.118 99.936Z" fill="black"/>
<path d="M78.0392 134.704C78.0201 134.835 78.092 134.962 78.2147 135.008L79.993 135.703C80.0966 135.743 80.1643 135.843 80.1706 135.953C80.1875 136.326 80.2277 136.696 80.2912 137.059C80.3102 137.169 80.2658 137.279 80.1727 137.34L78.5932 138.407C78.4832 138.481 78.4409 138.62 78.4896 138.743L79.0986 140.3C79.1472 140.422 79.2741 140.496 79.4031 140.475L81.2913 140.188C81.4013 140.171 81.5091 140.221 81.5683 140.314C81.7692 140.627 81.9891 140.925 82.2281 141.21C82.3 141.295 82.3148 141.413 82.2661 141.512L81.4309 143.229C81.3738 143.348 81.4055 143.489 81.5091 143.572L82.8138 144.615C82.9174 144.697 83.0633 144.697 83.1669 144.615L84.6556 143.426C84.7423 143.356 84.8607 143.346 84.9601 143.396C85.2878 143.565 85.6283 143.713 85.9814 143.84C86.085 143.878 86.159 143.973 86.1675 144.083L86.3028 145.986C86.3113 146.117 86.4106 146.225 86.5417 146.244L88.1932 146.495C88.3243 146.514 88.4512 146.442 88.4977 146.32L89.1934 144.543C89.2336 144.44 89.3329 144.372 89.4429 144.366C89.8172 144.349 90.1872 144.309 90.5488 144.245C90.6588 144.226 90.7687 144.271 90.83 144.364L91.8979 145.942C91.9719 146.051 92.1114 146.094 92.2341 146.047L93.7904 145.439C93.913 145.39 93.987 145.263 93.9659 145.135L93.6783 143.246C93.6614 143.136 93.7122 143.029 93.8052 142.97C94.1181 142.769 94.4163 142.549 94.6996 142.311C94.7842 142.239 94.9026 142.224 95.002 142.272L96.719 143.107C96.8374 143.164 96.9812 143.132 97.0637 143.029L98.1062 141.725C98.1886 141.622 98.1886 141.476 98.1062 141.373L96.9157 139.884C96.8459 139.797 96.8353 139.679 96.8861 139.579C97.0552 139.252 97.2033 138.912 97.3301 138.559C97.3682 138.453 97.4634 138.382 97.5733 138.373L99.4764 138.238C99.6075 138.23 99.7153 138.13 99.7344 137.999L99.986 136.348C100.005 136.217 99.9331 136.09 99.8105 136.043L98.0322 135.348C97.9285 135.308 97.8609 135.209 97.8545 135.099C97.8376 134.725 97.7975 134.356 97.734 133.992C97.715 133.883 97.7594 133.773 97.8524 133.711L99.432 132.645C99.5419 132.571 99.5842 132.431 99.5356 132.309L98.9266 130.754C98.878 130.632 98.7511 130.558 98.6221 130.579L96.7338 130.866C96.6239 130.883 96.516 130.832 96.4568 130.739C96.2559 130.427 96.036 130.129 95.7971 129.844C95.7252 129.759 95.7104 129.641 95.759 129.542L96.5943 127.825C96.6514 127.706 96.6196 127.563 96.516 127.482L95.2114 126.439C95.1077 126.356 94.9618 126.356 94.8582 126.439L93.3696 127.628C93.2829 127.698 93.1645 127.708 93.0651 127.658C92.7373 127.489 92.3969 127.341 92.0438 127.214C91.9402 127.176 91.8662 127.081 91.8577 126.971L91.7224 125.068C91.7139 124.937 91.6145 124.829 91.4834 124.81L89.832 124.559C89.7009 124.54 89.574 124.612 89.5275 124.734L88.8318 126.511C88.7916 126.614 88.6922 126.682 88.5823 126.688C88.208 126.705 87.838 126.745 87.4764 126.809C87.3664 126.828 87.2565 126.783 87.1951 126.69L86.1273 125.112C86.0533 125.003 85.9137 124.96 85.7911 125.007L84.2348 125.615C84.1121 125.664 84.0381 125.79 84.0593 125.919L84.3469 127.808C84.3638 127.917 84.313 128.025 84.22 128.084C83.907 128.285 83.6089 128.505 83.3234 128.743C83.2388 128.815 83.1204 128.83 83.021 128.781L81.304 127.947C81.1856 127.89 81.0418 127.922 80.9593 128.025L79.9169 129.328C79.8344 129.432 79.8344 129.578 79.9169 129.681L81.1074 131.17C81.1772 131.257 81.1877 131.375 81.137 131.475C80.9678 131.802 80.8198 132.142 80.6929 132.495C80.6549 132.6 80.5597 132.672 80.4497 132.681L78.5467 132.816C78.4156 132.824 78.3077 132.924 78.2887 133.055L78.0371 134.706L78.0392 134.704ZM83.427 135.471C83.4587 132.387 85.9877 129.914 89.0728 129.947C92.1601 129.979 94.6362 132.505 94.6024 135.587C94.5707 138.671 92.0417 141.145 88.9566 141.111C85.8693 141.079 83.3932 138.553 83.427 135.471Z" fill="white"/>
</g>
<defs>
<clipPath id="clip0_1676_11092">
<rect width="190.108" height="175" fill="white"/>
</clipPath>
</defs>
</svg>
