<svg width="18" height="18" viewBox="0 0 18 18" fill="none" xmlns="http://www.w3.org/2000/svg">
<path id="Union" fill-rule="evenodd" clip-rule="evenodd" d="M8.99978 0C7.50859 0 6.29975 1.20884 6.29975 2.70002V5.02505H8.09977V2.70002C8.09977 2.20296 8.50272 1.80002 8.99978 1.80002H15.2998C15.7969 1.80002 16.1998 2.20296 16.1998 2.70002V9.00008C16.1998 9.49714 15.7969 9.90009 15.2998 9.90009H13.0413V11.7001H15.2998C16.791 11.7001 17.9999 10.4913 17.9999 9.00008V2.70002C17.9999 1.20884 16.791 0 15.2998 0H8.99978ZM1.80002 8.0993H9.90009V16.1994H1.80002L1.80002 8.0993ZM0 8.0993C0 7.10518 0.805895 6.29929 1.80002 6.29929H9.90009C10.8942 6.29929 11.7001 7.10518 11.7001 8.0993V16.1994C11.7001 17.1935 10.8942 17.9994 9.90009 17.9994H1.80002C0.805895 17.9994 0 17.1935 0 16.1994V8.0993Z" fill="#0F1A2E"/>
</svg>
