<svg width="18" height="18" viewBox="0 0 18 18" fill="none" xmlns="http://www.w3.org/2000/svg">
<g id="Icon">
<path id="Vector" fill-rule="evenodd" clip-rule="evenodd" d="M9 4.35596C12.5659 4.35596 15.9985 8.40151 16.1431 8.57334L16.5 8.99992L16.1431 9.4265C15.9985 9.59833 12.5659 13.6439 9 13.6439C5.4341 13.6439 2.00155 9.59833 1.85692 9.4265L1.5 8.99992L1.85692 8.57334C2.00155 8.40151 5.4341 4.35596 9 4.35596ZM6.34631 8.99992C6.34631 10.4634 7.53649 11.6536 9 11.6536C10.4635 11.6536 11.6537 10.4634 11.6537 8.99992C11.6537 7.53641 10.4635 6.34623 9 6.34623C7.53649 6.34623 6.34631 7.53641 6.34631 8.99992ZM10.3269 8.99991C10.3269 9.73271 9.73283 10.3268 9.00003 10.3268C8.26723 10.3268 7.67318 9.73271 7.67318 8.99991C7.67318 8.26711 8.26723 7.67306 9.00003 7.67306C9.73283 7.67306 10.3269 8.26711 10.3269 8.99991Z" fill="#091734"/>
</g>
</svg>
