<svg width="29" height="32" viewBox="0 0 29 32" fill="none" xmlns="http://www.w3.org/2000/svg">
<path d="M13.5 2.07735C14.1188 1.72008 14.8812 1.72008 15.5 2.07735L26.0574 8.17265C26.6762 8.52992 27.0574 9.19017 27.0574 9.9047V22.0953C27.0574 22.8098 26.6762 23.4701 26.0574 23.8274L15.5 29.9226C14.8812 30.2799 14.1188 30.2799 13.5 29.9226L2.94263 23.8274C2.32383 23.4701 1.94263 22.8098 1.94263 22.0953V9.9047C1.94263 9.19017 2.32383 8.52992 2.94263 8.17265L13.5 2.07735Z" stroke="#0F69AF" stroke-width="2"/>
<path d="M22.7857 11.8574L22.7857 20.1431" stroke="#0F69AF" stroke-width="2" stroke-linecap="round"/>
<path d="M13.3899 6.67871L6.21428 10.8216" stroke="#0F69AF" stroke-width="2" stroke-linecap="round"/>
<path d="M6.21429 21.1787L13.3899 25.3216" stroke="#0F69AF" stroke-width="2" stroke-linecap="round"/>
</svg>
