<svg xmlns="http://www.w3.org/2000/svg" width="4" height="13" viewBox="0 0 4 13" fill="none">
  <path fill-rule="evenodd" clip-rule="evenodd" d="M2 0.5C2.82843 0.5 3.5 1.17157 3.5 2C3.5 2.82843 2.82843 3.5 2 3.5C1.17157 3.5 0.499999 2.82843 0.499999 2C0.499999 1.17157 1.17157 0.5 2 0.5ZM2 5C2.82843 5 3.5 5.67157 3.5 6.5C3.5 7.32843 2.82843 8 2 8C1.17157 8 0.499999 7.32843 0.499999 6.5C0.5 5.67157 1.17157 5 2 5ZM3.5 11C3.5 10.1716 2.82843 9.5 2 9.5C1.17157 9.5 0.5 10.1716 0.5 11C0.5 11.8284 1.17157 12.5 2 12.5C2.82843 12.5 3.5 11.8284 3.5 11Z" fill="black"/>
</svg>