<svg width="24" height="24" viewBox="0 0 24 24" fill="none" xmlns="http://www.w3.org/2000/svg">
<g id="Refresh">
<path id="Vector" fill-rule="evenodd" clip-rule="evenodd" d="M8.31798 9.06964C6.91208 10.4768 6.53192 12.5735 7.35025 14.411C7.56573 14.8957 7.34834 15.4637 6.86342 15.6799C6.73634 15.7362 6.60353 15.7632 6.47306 15.7632C6.10479 15.7632 5.75375 15.5507 5.59458 15.193C4.45027 12.6224 4.98577 9.68568 6.95883 7.71113C8.93444 5.73765 11.8712 5.20236 14.4424 6.34625C14.4471 6.34823 14.4512 6.35079 14.4552 6.35334C14.4581 6.35516 14.461 6.35698 14.4641 6.35857L14.1898 5.04171C14.0922 4.57379 14.3927 4.11564 14.8604 4.01832C15.329 3.92099 15.7863 4.22125 15.8834 4.68854L16.4777 7.53922C16.5449 7.86116 16.4238 8.19329 16.1647 8.39623L13.8816 10.1872C13.7231 10.3113 13.5355 10.3716 13.3478 10.3716C13.0914 10.3716 12.8374 10.2575 12.6668 10.0403C12.3716 9.664 12.4375 9.12085 12.8136 8.8259L13.7142 8.11892C13.7066 8.11606 13.699 8.11384 13.6913 8.11161C13.6813 8.10872 13.6713 8.10582 13.6615 8.10149C11.8225 7.28358 9.72451 7.66374 8.31798 9.06964ZM16.5706 9.25515C17.0558 9.03968 17.624 9.25792 17.839 9.74305C18.9821 12.3147 18.4459 15.2515 16.4737 17.2224C15.1892 18.5076 13.497 19.1829 11.7632 19.1829C10.8816 19.1829 9.99015 19.0061 9.13526 18.6481L9.40832 19.9585C9.50565 20.4265 9.20496 20.8842 8.73746 20.9821C8.67839 20.994 8.61867 21 8.56045 21C8.15925 21 7.7997 20.7195 7.7147 20.3111L7.12055 17.4608C7.05319 17.1393 7.17474 16.8072 7.43356 16.6042L9.71708 14.8133C10.0928 14.5177 10.6366 14.584 10.9313 14.9595C11.2269 15.3358 11.1606 15.8796 10.7851 16.1746L9.88602 16.8794C11.6965 17.6332 13.7363 17.2424 15.1137 15.8649C16.52 14.4593 16.8998 12.3625 16.0829 10.5231C15.867 10.0382 16.0855 9.4702 16.5706 9.25515Z" fill="#0F1A2E"/>
</g>
</svg>
