<svg xmlns="http://www.w3.org/2000/svg" width="23" height="19" viewBox="0 0 23 19" fill="none">
  <path d="M22.0834 18.1252V16.2083C22.0827 15.3588 21.8 14.5337 21.2796 13.8623C20.7592 13.191 20.0305 12.7115 19.208 12.4991M16.3333 18.1245V16.2079C16.3333 15.1912 15.9295 14.2162 15.2106 13.4973C14.4917 12.7784 13.5167 12.3745 12.5 12.3745H4.83333C3.81667 12.3745 2.84165 12.7784 2.12276 13.4973C1.40387 14.2162 1 15.1912 1 16.2079V18.1245M15.3747 0.99904C16.1994 1.21019 16.9303 1.68979 17.4523 2.36225C17.9743 3.0347 18.2576 3.86175 18.2576 4.71301C18.2576 5.56427 17.9743 6.39132 17.4523 7.06378C16.9303 7.73623 16.1994 8.21584 15.3747 8.42698M12.5009 4.70853C12.5009 6.82587 10.7844 8.54231 8.66709 8.54231C6.54975 8.54231 4.83331 6.82587 4.83331 4.70853C4.83331 2.5912 6.54975 0.874756 8.66709 0.874756C10.7844 0.874756 12.5009 2.5912 12.5009 4.70853Z" stroke="#8B8B9C" stroke-width="1.2" stroke-linecap="round" stroke-linejoin="round"/>
</svg>