<svg width="40" height="32" viewBox="0 0 40 32" fill="none" xmlns="http://www.w3.org/2000/svg">
<path id="Vector" d="M39 31V27.6664C38.9989 26.1891 38.4893 24.7541 37.5513 23.5865C36.6133 22.419 35.3 21.5851 33.8176 21.2158M28.6363 30.9989V27.6657C28.6363 25.8976 27.9084 24.2019 26.6127 22.9517C25.317 21.7015 23.5596 20.9991 21.7272 20.9991H7.90908C6.07668 20.9991 4.31933 21.7015 3.02362 22.9517C1.72792 24.2019 1 25.8976 1 27.6657V30.9989M26.9086 1.21614C28.3949 1.58334 29.7123 2.41742 30.6531 3.58687C31.5939 4.75633 32.1045 6.19465 32.1045 7.67506C32.1045 9.15548 31.5939 10.5938 30.6531 11.7633C29.7123 12.9327 28.3949 13.7668 26.9086 14.134M21.7288 7.66728C21.7288 11.3495 18.6351 14.3346 14.8189 14.3346C11.0027 14.3346 7.90903 11.3495 7.90903 7.66728C7.90903 3.98504 11.0027 1 14.8189 1C18.6351 1 21.7288 3.98504 21.7288 7.66728Z" stroke="#0F69AF" stroke-width="2" stroke-linecap="round" stroke-linejoin="round"/>
</svg>
